<svg xmlns="http://www.w3.org/2000/svg" viewBox="0 0 64 64">
  <defs><g id="tr">
    <ellipse cx="0" cy="10" rx="9" ry="3" fill="#2b5228" opacity="0.6"/>
    <path d="M-1.5 10 L-2.5 1 L2.5 1 L1.5 10 Z" fill="#5a4028"/>
    <path d="M-1.5 10 L-4 12 M1.5 10 L4 12" stroke="#5a4028" stroke-width="1.2" fill="none"/>
    <circle cx="-5" cy="-2" r="7" fill="#2c5c29"/>
    <circle cx="5" cy="-1" r="7.5" fill="#2c5c29"/>
    <circle cx="0" cy="-7" r="7" fill="#2c5c29"/>
    <circle cx="-4" cy="-6" r="5.5" fill="#397236"/>
    <circle cx="2" cy="-3" r="6" fill="#397236"/>
    <circle cx="-2" cy="-8" r="4" fill="#478744"/>
  </g></defs>
  <rect width="64" height="64" fill="#3a6f36"/>
  <g fill="#33622f">
    <ellipse cx="50" cy="58" rx="10" ry="4"/>
    <ellipse cx="10" cy="10" rx="7" ry="4"/>
  </g>
  <g fill="#478744">
    <circle cx="56" cy="22" r="1.2"/>
    <circle cx="8" cy="40" r="1.1"/>
  </g>
  <use href="#tr" transform="translate(21 20) scale(1.15)"/>
  <use href="#tr" transform="translate(46 36) scale(1.2)"/>
  <use href="#tr" transform="translate(19 47) scale(0.95)"/>
</svg>
