<svg xmlns="http://www.w3.org/2000/svg" viewBox="0 0 64 64">
  <defs>
    <g id="tr">
      <ellipse cx="0" cy="10" rx="9" ry="3" fill="#2b5228" opacity="0.6"/>
      <path d="M-1.5 10 L-2.5 1 L2.5 1 L1.5 10 Z" fill="#5a4028"/>
      <path d="M-1.5 10 L-4 12 M1.5 10 L4 12" stroke="#5a4028" stroke-width="1.2" fill="none"/>
      <circle cx="-5" cy="-2" r="7" fill="#2c5c29"/>
      <circle cx="5" cy="-1" r="7.5" fill="#2c5c29"/>
      <circle cx="0" cy="-7" r="7" fill="#2c5c29"/>
      <circle cx="-4" cy="-6" r="5.5" fill="#397236"/>
      <circle cx="2" cy="-3" r="6" fill="#397236"/>
      <circle cx="-2" cy="-8" r="4" fill="#478744"/>
    </g>
    <g id="ec">
      <circle cx="-5" cy="2" r="6.5" fill="#2c5c29"/>
      <circle cx="4" cy="-2" r="7" fill="#2c5c29"/>
      <circle cx="-1" cy="-5" r="5.5" fill="#2c5c29"/>
      <circle cx="1" cy="4" r="6" fill="#2c5c29"/>
      <circle cx="-3" cy="-1" r="4.5" fill="#397236"/>
      <circle cx="4" cy="1" r="4" fill="#397236"/>
      <circle cx="0" cy="-3" r="3" fill="#478744"/>
    </g>
  </defs>
  <rect width="64" height="64" fill="#3a6f36"/>
  <ellipse cx="32" cy="33" rx="12" ry="8" fill="#33622f"/>
  <g fill="#8a4f2e">
    <ellipse cx="33" cy="33" rx="2" ry="1"/>
    <path d="M31.6 33 L31.6 30.6 L34.4 30.6 L34.4 33 Z"/>
  </g>
  <ellipse cx="33" cy="30.6" rx="1.6" ry="0.7" fill="#a86a40"/>
  <!-- Edge canopy: byte-identical across forest variants, stamped in wrapped
       pairs (a stamp crossing x=0 repeats at +64, likewise y, corners at all
       four) so any variant abuts any variant seamlessly. Stamps mix full
       trees with clusters, sit at irregular offsets staggered a few units
       off the border line, and some are mirrored, so seams read as forest
       rather than a straight row of identical blobs at every boundary. -->
  <g>
    <use href="#ec" transform="translate(0 0) scale(0.8)"/>
    <use href="#ec" transform="translate(64 0) scale(0.8)"/>
    <use href="#ec" transform="translate(0 64) scale(0.8)"/>
    <use href="#ec" transform="translate(64 64) scale(0.8)"/>
    <use href="#tr" transform="translate(2 17) scale(0.85)"/>
    <use href="#tr" transform="translate(66 17) scale(0.85)"/>
    <use href="#ec" transform="translate(-3 38) scale(0.7)"/>
    <use href="#ec" transform="translate(61 38) scale(0.7)"/>
    <use href="#tr" transform="translate(1 53) scale(-0.75 0.75)"/>
    <use href="#tr" transform="translate(65 53) scale(-0.75 0.75)"/>
    <use href="#tr" transform="translate(13 2) scale(0.8)"/>
    <use href="#tr" transform="translate(13 66) scale(0.8)"/>
    <use href="#ec" transform="translate(35 -2) scale(0.75)"/>
    <use href="#ec" transform="translate(35 62) scale(0.75)"/>
    <use href="#tr" transform="translate(52 1) scale(-0.9 0.9)"/>
    <use href="#tr" transform="translate(52 65) scale(-0.9 0.9)"/>
  </g>
  <use href="#tr" transform="translate(15 16) scale(0.8)"/>
  <use href="#tr" transform="translate(34 12) scale(0.7)"/>
  <use href="#tr" transform="translate(50 18) scale(0.8)"/>
  <use href="#tr" transform="translate(14 38) scale(0.75)"/>
  <use href="#tr" transform="translate(50 42) scale(0.85)"/>
  <use href="#tr" transform="translate(31 49) scale(0.8)"/>
</svg>
