<svg xmlns="http://www.w3.org/2000/svg" viewBox="0 0 64 64">
  <rect width="64" height="64" fill="#5a9b4a"/>
  <ellipse cx="50" cy="56" rx="8" ry="4" fill="#63a651"/>
  <ellipse cx="12" cy="34" rx="7" ry="4" fill="#529044"/>
  <!-- Tilled plot with crop rows, fenced on the near side. -->
  <rect x="8" y="40" width="26" height="16" rx="2" fill="#8a6a42"/>
  <g stroke="#6f5433" stroke-width="1.2" fill="none">
    <path d="M10 44 L32 44 M10 48 L32 48 M10 52 L32 52"/>
  </g>
  <g stroke="#4c8a40" stroke-width="1" fill="none" stroke-linecap="round">
    <path d="M13 44 Q13.8 41.5 14.6 44 M19 44 Q19.8 41.5 20.6 44 M25 44 Q25.8 41.5 26.6 44"/>
    <path d="M15 48 Q15.8 45.5 16.6 48 M21 48 Q21.8 45.5 22.6 48 M27 48 Q27.8 45.5 28.6 48"/>
  </g>
  <g fill="#8a6f4a">
    <rect x="8" y="34" width="1.5" height="5"/>
    <rect x="16" y="34" width="1.5" height="5"/>
    <rect x="24" y="34" width="1.5" height="5"/>
    <rect x="32" y="34" width="1.5" height="5"/>
  </g>
  <path d="M8 36 L33.5 36" stroke="#8a6f4a" stroke-width="1.2" fill="none"/>
  <!-- Red barn with hayloft door, on a dirt yard. -->
  <ellipse cx="46" cy="34" rx="15" ry="8" fill="#c2a36c"/>
  <g>
    <rect x="38" y="22" width="18" height="14" fill="#a04434"/>
    <rect x="38" y="22" width="18" height="14" fill="none" stroke="#7e3428" stroke-width="0.8"/>
    <polygon points="36,22 47,13 58,22" fill="#7a5a38"/>
    <polygon points="47,13 58,22 47,22" fill="#5f4529"/>
    <rect x="43.5" y="27" width="7" height="9" fill="#5a3a2a"/>
    <path d="M43.5 27 L50.5 36 M50.5 27 L43.5 36" stroke="#c98a5a" stroke-width="0.8"/>
    <rect x="45.5" y="17.5" width="3" height="3.5" fill="#5a3a2a"/>
  </g>
  <!-- Haystack and a water trough by the barn. -->
  <g>
    <ellipse cx="30" cy="26" rx="5" ry="2" fill="#4f8c40"/>
    <path d="M25.5 26 Q26 19 30 17.5 Q34 19 34.5 26 Z" fill="#d9b95c"/>
    <path d="M27 22 Q30 21 33 22" stroke="#b8973f" stroke-width="0.8" fill="none"/>
  </g>
  <g>
    <rect x="52" y="40" width="8" height="4" rx="1" fill="#7a5a38"/>
    <ellipse cx="56" cy="40.5" rx="3.2" ry="1" fill="#477aa0"/>
  </g>
</svg>
