<svg xmlns="http://www.w3.org/2000/svg" viewBox="0 0 64 64">
  <rect width="64" height="64" fill="#5a9b4a"/>
  <ellipse cx="50" cy="56" rx="8" ry="4" fill="#63a651"/>
  <ellipse cx="12" cy="34" rx="7" ry="4" fill="#529044"/>
  <!-- Tilled plot: crop rows in two stages, pumpkins ripening in the third,
       fenced along the top with a gap for the gate. -->
  <rect x="8" y="40" width="26" height="16" rx="2" fill="#8a6a42"/>
  <rect x="8" y="40" width="26" height="16" rx="2" fill="none" stroke="#75592f" stroke-width="0.7"/>
  <g stroke="#6f5433" stroke-width="1.2" fill="none">
    <path d="M10 44 L32 44 M10 48 L32 48 M10 52 L32 52"/>
  </g>
  <g stroke="#4c8a40" stroke-width="1" fill="none" stroke-linecap="round">
    <path d="M13 44 Q13.8 41.5 14.6 44 M19 44 Q19.8 41.5 20.6 44 M25 44 Q25.8 41.5 26.6 44"/>
    <path d="M15 48 Q15.8 45.5 16.6 48 M21 48 Q21.8 45.5 22.6 48 M27 48 Q27.8 45.5 28.6 48"/>
  </g>
  <path d="M13.8 42.5 L14.6 42 M20 42.5 L20.8 42 M15.8 46.5 L16.6 46" stroke="#63a651" stroke-width="0.8" fill="none" stroke-linecap="round"/>
  <g>
    <circle cx="14" cy="52" r="1.6" fill="#c9762e"/>
    <path d="M13.2 51.5 Q14 50.9 14.8 51.5" stroke="#a85e22" stroke-width="0.5" fill="none"/>
    <path d="M14 50.4 L14 49.6" stroke="#4c6531" stroke-width="0.7"/>
    <circle cx="21" cy="52.2" r="1.3" fill="#c9762e"/>
    <path d="M21 50.9 L21 50.2" stroke="#4c6531" stroke-width="0.7"/>
    <circle cx="28" cy="52" r="1.5" fill="#d8853a"/>
    <path d="M28 50.5 L28 49.8" stroke="#4c6531" stroke-width="0.7"/>
  </g>
  <!-- Fence with crossbar rails and a swung-open gate at the right end. -->
  <g fill="#8a6f4a">
    <rect x="8" y="34" width="1.5" height="5"/>
    <rect x="15" y="34" width="1.5" height="5"/>
    <rect x="22" y="34" width="1.5" height="5"/>
    <rect x="29" y="34" width="1.5" height="5"/>
  </g>
  <path d="M8 35.2 L30.5 35.2 M8 37.4 L30.5 37.4" stroke="#8a6f4a" stroke-width="1.1" fill="none"/>
  <path d="M30.5 35 L35 32.5 M30.5 37.5 L35 35 M35 32.5 L35 35" stroke="#a3865c" stroke-width="1.1" fill="none"/>
  <!-- Red barn on its dirt yard: plank siding, gambrel-shingled roof,
       crossbuck doors, hayloft with hoist beam. -->
  <ellipse cx="46" cy="34" rx="15" ry="8" fill="#c2a36c"/>
  <ellipse cx="46" cy="34" rx="10" ry="5" fill="#cdb078"/>
  <g>
    <rect x="38" y="22" width="18" height="14" fill="#a04434"/>
    <path d="M41 22 L41 36 M44 22 L44 36 M52 22 L52 36 M55 22 L55 36" stroke="#8b3a2c" stroke-width="0.5"/>
    <rect x="38" y="22" width="18" height="14" fill="none" stroke="#7e3428" stroke-width="0.8"/>
    <polygon points="36,22 47,13 58,22" fill="#7a5a38"/>
    <polygon points="47,13 58,22 47,22" fill="#5f4529"/>
    <rect x="43" y="27" width="8" height="9" fill="#3f2a1e"/>
    <rect x="43.4" y="27.4" width="3.4" height="8.2" fill="#5a3a2a" stroke="#c98a5a" stroke-width="0.5"/>
    <path d="M43.4 35.6 L46.8 27.4" stroke="#c98a5a" stroke-width="0.5"/>
    <rect x="47.2" y="27.4" width="3.4" height="8.2" fill="#5a3a2a" stroke="#c98a5a" stroke-width="0.5"/>
    <path d="M47.2 35.6 L50.6 27.4" stroke="#c98a5a" stroke-width="0.5"/>
    <rect x="45.2" y="16.5" width="3.6" height="4.5" fill="#5a3a2a"/>
    <path d="M45.2 18.7 L48.8 18.7" stroke="#3f2a1e" stroke-width="0.5"/>
    <path d="M47 13 L47 11.2 L50 11.2" stroke="#5f4529" stroke-width="0.9" fill="none"/>
    <path d="M50 11.2 L50 13.5" stroke="#8a6f4a" stroke-width="0.6"/>
    <rect x="39.5" y="24" width="3" height="3" fill="#7a6a4a" stroke="#5f5138" stroke-width="0.5"/>
  </g>
  <!-- Haystack, water trough, and hens pecking the yard. -->
  <g>
    <ellipse cx="30" cy="26" rx="5" ry="2" fill="#4f8c40"/>
    <path d="M25.5 26 Q26 19 30 17.5 Q34 19 34.5 26 Z" fill="#d9b95c"/>
    <path d="M27 22 Q30 21 33 22 M28 19.5 Q30 18.8 32 19.5" stroke="#b8973f" stroke-width="0.8" fill="none"/>
    <path d="M30 17.5 L30 16.3" stroke="#b8973f" stroke-width="0.8"/>
  </g>
  <g>
    <rect x="52" y="40" width="8" height="4" rx="1" fill="#7a5a38"/>
    <path d="M52 41.8 L60 41.8" stroke="#5f4529" stroke-width="0.5"/>
    <ellipse cx="56" cy="40.5" rx="3.2" ry="1" fill="#477aa0"/>
    <ellipse cx="55.2" cy="40.3" rx="1.2" ry="0.4" fill="#5788ac"/>
  </g>
  <g>
    <ellipse cx="40" cy="41" rx="1.5" ry="1.1" fill="#e6e1d8"/>
    <circle cx="41.2" cy="40" r="0.8" fill="#e6e1d8"/>
    <path d="M41.9 40 L42.5 40.3 L41.9 40.5 Z" fill="#d8853a"/>
    <path d="M41.4 39.4 L41.6 38.9" stroke="#b0432f" stroke-width="0.5"/>
    <ellipse cx="35" cy="44" rx="1.3" ry="1" fill="#c9955c"/>
    <circle cx="34" cy="43.4" r="0.7" fill="#c9955c"/>
    <path d="M33.4 43.5 L32.8 43.7 L33.4 43.9 Z" fill="#d8853a"/>
  </g>
  <path d="M10 60 Q11 57.5 12 60 M14 61 Q15 58.5 16 61 M45 58 Q46 55.5 47 58" stroke="#4c8a40" stroke-width="1" fill="none" stroke-linecap="round"/>
</svg>
