<svg xmlns="http://www.w3.org/2000/svg" viewBox="0 0 64 64">
  <rect width="64" height="64" fill="#5a9b4a"/>
  <ellipse cx="50" cy="10" rx="8" ry="4.5" fill="#63a651"/>
  <ellipse cx="12" cy="54" rx="7" ry="4" fill="#529044"/>
  <ellipse cx="33" cy="45" rx="16" ry="8" fill="#c2a36c"/>
  <ellipse cx="33" cy="45" rx="12" ry="5.8" fill="#cdb078"/>
  <!-- sheltering tree -->
  <g>
    <ellipse cx="15" cy="42" rx="7" ry="3" fill="#2b5228" opacity="0.5"/>
    <path d="M14 42 L13.6 33 L16.4 33 L16 42 Z" fill="#5a4028"/>
    <circle cx="11.5" cy="29" r="5" fill="#3f7a34"/>
    <circle cx="18" cy="27.5" r="5.5" fill="#3f7a34"/>
    <circle cx="15" cy="23.5" r="4.6" fill="#4c8a40"/>
    <circle cx="13.4" cy="21.8" r="2.4" fill="#5c9a4e"/>
  </g>
  <!-- standing stone with glowing rune -->
  <g>
    <path d="M31 44 L30.2 26 Q30 22 33.6 21.6 Q37.4 21.4 37.8 25.4 L38.6 44 Z" fill="#8f8a80"/>
    <path d="M31 44 L30.2 26 Q30 22 33.6 21.6 Q34.6 21.6 35.4 22 Q33 23 33.2 26.4 L34 44 Z" fill="#a29d92"/>
    <circle cx="35" cy="31" r="5.5" fill="#7ec8e8" opacity="0.14"/>
    <circle cx="35" cy="31" r="3.2" fill="#7ec8e8" opacity="0.22"/>
    <path d="M35 27.5 L37 31 L35 34.5 L33 31 Z M35 29 V33" fill="none" stroke="#a8dff2" stroke-width="1"/>
  </g>
  <!-- altar slab with offerings -->
  <g>
    <rect x="42.5" y="40" width="11" height="2.6" rx="0.8" fill="#a29d92" stroke="#7c776d" stroke-width="0.5"/>
    <rect x="44" y="42.6" width="2.4" height="3.6" fill="#8f8a80"/>
    <rect x="49.6" y="42.6" width="2.4" height="3.6" fill="#8f8a80"/>
    <ellipse cx="45.6" cy="39.4" rx="1.5" ry="0.9" fill="#c95f7a"/>
    <circle cx="49.8" cy="39.2" r="1" fill="#c9a020"/>
  </g>
  <!-- candles -->
  <g>
    <rect x="26" y="45.5" width="1.8" height="3.5" fill="#e6e1d0"/>
    <path d="M26.9 43.2 Q26.1 44.4 26.9 45.4 Q27.7 44.4 26.9 43.2" fill="#e8a83c"/>
    <circle cx="26.9" cy="44.4" r="2.4" fill="#e8a83c" opacity="0.16"/>
    <rect x="40" y="46.5" width="1.8" height="3" fill="#e6e1d0"/>
    <path d="M40.9 44.2 Q40.1 45.4 40.9 46.4 Q41.7 45.4 40.9 44.2" fill="#e8a83c"/>
    <circle cx="40.9" cy="45.4" r="2.4" fill="#e8a83c" opacity="0.16"/>
  </g>
  <!-- scattered petals -->
  <g fill="#d98aa3">
    <circle cx="30" cy="51" r="0.8"/>
    <circle cx="35" cy="53" r="0.7"/>
    <circle cx="44" cy="51.5" r="0.8"/>
    <circle cx="24" cy="48.5" r="0.6"/>
  </g>
</svg>
