<svg xmlns="http://www.w3.org/2000/svg" viewBox="0 0 64 64">
  <defs><g id="t" fill="none" stroke-linecap="round">
    <path d="M0 0 Q-2 -4 -4 -7" stroke="#3f7a34" stroke-width="1.6"/>
    <path d="M0 0 Q0 -5 -0.5 -9" stroke="#3f7a34" stroke-width="1.6"/>
    <path d="M0 0 Q2 -4 4 -7" stroke="#3f7a34" stroke-width="1.6"/>
    <path d="M0.5 0 Q1.5 -4 3 -6" stroke="#74b160" stroke-width="1.2"/>
  </g></defs>
  <rect width="64" height="64" fill="#5a9b4a"/>
  <ellipse cx="50" cy="14" rx="9" ry="5" fill="#529044"/>
  <use href="#t" transform="translate(52 50)"/>
  <use href="#t" transform="translate(50 32)"/>
  <path d="M0 32 L32 32" stroke="#7c6448" stroke-width="20" fill="none" stroke-linecap="round"/>
  <path d="M0 32 L32 32" stroke="#bb9c70" stroke-width="16" fill="none" stroke-linecap="round"/>
  <g stroke="#9c8158" stroke-width="1.5" fill="none" stroke-linecap="round"><path d="M0 27 L26 27"/><path d="M0 37 L26 37"/></g>
  <path d="M0 32 L30 32" stroke="#8a7150" stroke-width="2" stroke-dasharray="5 7" fill="none"/>
  <circle cx="18" cy="30" r="1" fill="#a68a5e"/><circle cx="8" cy="35" r="0.9" fill="#cbb083"/>
</svg>
