<svg xmlns="http://www.w3.org/2000/svg" viewBox="0 0 64 64">
  <defs><g id="t" fill="none" stroke-linecap="round">
    <path d="M0 0 Q-2 -4 -4 -7" stroke="#3f7a34" stroke-width="1.6"/>
    <path d="M0 0 Q0 -5 -0.5 -9" stroke="#3f7a34" stroke-width="1.6"/>
    <path d="M0 0 Q2 -4 4 -7" stroke="#3f7a34" stroke-width="1.6"/>
    <path d="M0.5 0 Q1.5 -4 3 -6" stroke="#74b160" stroke-width="1.2"/>
  </g></defs>
  <rect width="64" height="64" fill="#5a9b4a"/>
  <ellipse cx="10" cy="32" rx="4" ry="10" fill="#529044"/>
  <ellipse cx="54" cy="32" rx="4" ry="10" fill="#63a651"/>
  <use href="#t" transform="translate(12 56)"/>
  <use href="#t" transform="translate(54 14)"/>
  <path d="M32 0 L32 64" stroke="#7c6448" stroke-width="20" fill="none"/>
  <path d="M32 0 L32 64" stroke="#bb9c70" stroke-width="16" fill="none"/>
  <g stroke="#9c8158" stroke-width="1.5" fill="none"><path d="M27 0 L27 64"/><path d="M37 0 L37 64"/></g>
  <path d="M32 0 L32 64" stroke="#8a7150" stroke-width="2" stroke-dasharray="5 7" fill="none"/>
  <g fill="#a68a5e"><circle cx="30" cy="14" r="1"/><circle cx="35" cy="40" r="0.9"/></g>
  <circle cx="29" cy="52" r="0.9" fill="#cbb083"/>
</svg>
