<svg xmlns="http://www.w3.org/2000/svg" viewBox="0 0 64 64">
  <rect width="64" height="64" fill="#5a9b4a"/>
  <ellipse cx="14" cy="12" rx="9" ry="5" fill="#63a651"/>
  <ellipse cx="52" cy="54" rx="8" ry="4" fill="#529044"/>
  <!-- Worn ring in the turf where the circle stands. -->
  <ellipse cx="32" cy="38" rx="21" ry="11" fill="none" stroke="#4f8c40" stroke-width="3" opacity="0.7"/>
  <ellipse cx="32" cy="38" rx="21" ry="11" fill="#63a651" opacity="0.35"/>
  <!-- Back arc of the ring: lintel pair flanked by two menhirs. -->
  <g>
    <ellipse cx="32" cy="28" rx="8" ry="1.8" fill="#42522f" opacity="0.5"/>
    <path d="M26 28 L26.5 15 L29.5 14.5 L30 28 Z" fill="#9aa1ab"/>
    <path d="M26.5 15 L29.5 14.5 L29 28 L27.8 28 Z" fill="#b3b9c2"/>
    <path d="M34 28 L34.2 15.5 L37.2 15 L38 28 Z" fill="#9aa1ab"/>
    <path d="M34.2 15.5 L37.2 15 L36.8 28 L35.4 28 Z" fill="#b3b9c2"/>
    <path d="M24.5 15.5 L39.5 15 L39.5 12 L24.5 12.5 Z" fill="#8a9199"/>
    <path d="M24.5 12.5 L39.5 12 L39.5 13 L24.5 13.5 Z" fill="#a8aeb7"/>
  </g>
  <g>
    <ellipse cx="14" cy="35" rx="4" ry="1.4" fill="#42522f" opacity="0.5"/>
    <path d="M12 35 L12.4 24 L15.6 23.5 L16.4 35 Z" fill="#9aa1ab" transform="rotate(-4 14 30)"/>
    <path d="M12.4 24 L15.6 23.5 L15 35 L13.6 35 Z" fill="#b3b9c2" transform="rotate(-4 14 30)"/>
  </g>
  <g>
    <ellipse cx="50" cy="35" rx="4" ry="1.4" fill="#42522f" opacity="0.5"/>
    <path d="M48 35 L48.4 25 L51.4 24.5 L52.4 35 Z" fill="#9aa1ab" transform="rotate(5 50 30)"/>
    <path d="M48.4 25 L51.4 24.5 L50.8 35 L49.5 35 Z" fill="#b3b9c2" transform="rotate(5 50 30)"/>
  </g>
  <!-- Front arc: shorter stones, one fallen and half-sunk in the grass. -->
  <g>
    <ellipse cx="20" cy="47" rx="3.5" ry="1.2" fill="#42522f" opacity="0.5"/>
    <path d="M18 47 L18.4 39.5 L21.4 39 L22 47 Z" fill="#8a9199"/>
    <path d="M18.4 39.5 L21.4 39 L20.8 47 L19.6 47 Z" fill="#a8aeb7"/>
  </g>
  <g>
    <ellipse cx="44" cy="47" rx="3.5" ry="1.2" fill="#42522f" opacity="0.5"/>
    <path d="M42 47 L42.6 40 L45.4 39.5 L46 47 Z" fill="#8a9199" transform="rotate(-6 44 43)"/>
  </g>
  <g>
    <rect x="27" y="48" width="10" height="3.4" rx="1.4" fill="#9aa1ab" transform="rotate(-5 32 50)"/>
    <path d="M27.5 48.6 L36 47.8" stroke="#b3b9c2" stroke-width="1" transform="rotate(-5 32 50)"/>
  </g>
  <!-- Faint moss and rune scratches on the tallest stone. -->
  <path d="M27.5 18 L28.5 18 M27.6 20 L28.6 20 M28 22 L27.6 24" stroke="#5f6a72" stroke-width="0.6" fill="none"/>
  <circle cx="26.8" cy="26" r="1" fill="#4c8a40" opacity="0.8"/>
</svg>
