<svg xmlns="http://www.w3.org/2000/svg" viewBox="0 0 64 64">
  <rect width="64" height="64" fill="#a89f8d"/>
  <g stroke="#8f8776" stroke-width="1.5" fill="none">
    <path d="M0 0 H64 M0 16 H64 M0 32 H64 M0 48 H64 M0 64 H64"/>
    <path d="M0 0 V64 M16 0 V64 M32 0 V64 M48 0 V64 M64 0 V64"/>
  </g>
  <rect x="24" width="16" height="22" fill="#6f6a60"/>
  <rect x="24" y="42" width="16" height="22" fill="#6f6a60"/>
  <path d="M32 0 V22 M32 42 V64" stroke="#55514a" stroke-width="1" fill="none"/>
  <path d="M24 16 H32 M32 8 H40 M24 48 H32 M32 56 H40" stroke="#55514a" stroke-width="1" fill="none"/>
  <path d="M25 0 V22 M25 42 V64" stroke="#8a857a" stroke-width="1" fill="none"/>
  <path d="M24 0 V22 M40 0 V22 M24 42 V64 M40 42 V64 M24 22 H40 M24 42 H40" stroke="#4c4841" stroke-width="1.5" fill="none"/>
  <rect x="19" y="23" width="26" height="18" rx="1" fill="#7a5a34" stroke="#4e3a22" stroke-width="1"/>
  <path d="M19.5 27.5 H44.5 M19.5 32 H44.5 M19.5 36.5 H44.5" stroke="#5f4527" stroke-width="0.8" fill="none"/>
  <path d="M24.5 24 V40 M39.5 24 V40" stroke="#3f2f1c" stroke-width="0.9" fill="none"/>
  <circle cx="24.5" cy="25.6" r="0.7" fill="#2e2214"/>
  <circle cx="24.5" cy="38.4" r="0.7" fill="#2e2214"/>
  <circle cx="39.5" cy="25.6" r="0.7" fill="#2e2214"/>
  <circle cx="39.5" cy="38.4" r="0.7" fill="#2e2214"/>
  <circle cx="32" cy="33.5" r="1" fill="#c9a020"/>
</svg>
