<svg xmlns="http://www.w3.org/2000/svg" viewBox="0 0 64 64">
  <rect width="64" height="64" fill="#a89f8d"/>
  <g stroke="#8f8776" stroke-width="1.5" fill="none">
    <path d="M0 0 H64 M0 16 H64 M0 32 H64 M0 48 H64 M0 64 H64"/>
    <path d="M0 0 V64 M16 0 V64 M32 0 V64 M48 0 V64 M64 0 V64"/>
  </g>
  <rect x="14" y="9" width="36" height="46" fill="#8b8371"/>
  <g>
    <rect x="15" y="10" width="34" height="5" fill="#9a9280"/>
    <rect x="15" y="15" width="34" height="5" fill="#8b8371"/>
    <rect x="15" y="20" width="34" height="5" fill="#7c7463"/>
    <rect x="15" y="25" width="34" height="5" fill="#6c6556"/>
    <rect x="15" y="30" width="34" height="5" fill="#5c5648"/>
    <rect x="15" y="35" width="34" height="5" fill="#4b463a"/>
    <rect x="15" y="40" width="34" height="5" fill="#3a362d"/>
    <rect x="15" y="45" width="34" height="9" fill="#221f19"/>
  </g>
  <g stroke="#332f27" stroke-width="0.9" fill="none">
    <path d="M15 15 H49 M15 20 H49 M15 25 H49 M15 30 H49 M15 35 H49 M15 40 H49 M15 45 H49"/>
  </g>
  <rect x="14" y="9" width="36" height="46" fill="none" stroke="#4c4841" stroke-width="1.5"/>
  <path d="M32 21 L32 33 M28 29 L32 33 L36 29" stroke="#c9c1ae" stroke-width="1.6" fill="none" stroke-linecap="round" stroke-linejoin="round" opacity="0.7"/>
</svg>
