<svg xmlns="http://www.w3.org/2000/svg" viewBox="0 0 64 64">
  <rect width="64" height="64" fill="#a89f8d"/>
  <g stroke="#8f8776" stroke-width="1.5" fill="none">
    <path d="M0 0 H64 M0 16 H64 M0 32 H64 M0 48 H64 M0 64 H64"/>
    <path d="M0 0 V64 M16 0 V64 M32 0 V64 M48 0 V64 M64 0 V64"/>
  </g>
  <path d="M24 0 H40 V64 H24 V40 H0 V24 H24 Z" fill="#6f6a60"/>
  <path d="M32 0 V64 M0 32 H32" stroke="#55514a" stroke-width="1" fill="none"/>
  <path d="M24 16 H32 M32 8 H40 M24 48 H32 M32 56 H40 M16 24 V32 M8 32 V40" stroke="#55514a" stroke-width="1" fill="none"/>
  <path d="M25 0 V64 M0 25 H25" stroke="#8a857a" stroke-width="1" fill="none"/>
  <path d="M40 0 V64 M24 0 V24 H0 M0 40 H24 V64" stroke="#4c4841" stroke-width="1.5" fill="none"/>
</svg>
