<svg xmlns="http://www.w3.org/2000/svg" viewBox="0 0 64 64">
  <rect width="64" height="64" fill="#a89f8d"/>
  <g stroke="#8f8776" stroke-width="1.5" fill="none">
    <path d="M0 0 H64 M0 16 H64 M0 32 H64 M0 48 H64 M0 64 H64"/>
    <path d="M0 0 V64 M16 0 V64 M32 0 V64 M48 0 V64 M64 0 V64"/>
  </g>
  <path d="M24 0 V40 H64 V24 H40 V0 Z" fill="#6f6a60"/>
  <path d="M32 0 V32 H64" stroke="#55514a" stroke-width="1" fill="none"/>
  <path d="M24 16 H32 M32 8 H40 M48 24 V32 M56 32 V40" stroke="#55514a" stroke-width="1" fill="none"/>
  <path d="M25 0 V25 H64" stroke="#8a857a" stroke-width="1" fill="none"/>
  <path d="M24 0 V40 H64" stroke="#4c4841" stroke-width="1.5" fill="none"/>
  <path d="M40 0 V24 H64" stroke="#4c4841" stroke-width="1.5" fill="none"/>
</svg>
