<svg xmlns="http://www.w3.org/2000/svg" viewBox="0 0 64 64">
  <rect width="64" height="64" fill="#a89f8d"/>
  <g stroke="#8f8776" stroke-width="1.5" fill="none">
    <path d="M0 0 H64 M0 16 H64 M0 32 H64 M0 48 H64 M0 64 H64"/>
    <path d="M0 0 V64 M16 0 V64 M32 0 V64 M48 0 V64 M64 0 V64"/>
  </g>
  <path d="M0 24 H64 V40 H40 V64 H24 V40 H0 Z" fill="#6f6a60"/>
  <path d="M0 32 H64 M32 32 V64" stroke="#55514a" stroke-width="1" fill="none"/>
  <path d="M24 48 H32 M32 56 H40 M16 24 V32 M8 32 V40 M48 24 V32 M56 32 V40" stroke="#55514a" stroke-width="1" fill="none"/>
  <path d="M0 25 H64 M25 25 V64" stroke="#8a857a" stroke-width="1" fill="none"/>
  <path d="M0 24 H64 M0 40 H24 V64 M40 64 V40 H64" stroke="#4c4841" stroke-width="1.5" fill="none"/>
</svg>
