<svg xmlns="http://www.w3.org/2000/svg" viewBox="0 0 64 64">
  <rect width="64" height="64" fill="#5a9b4a"/>
  <ellipse cx="50" cy="11" rx="8" ry="4.5" fill="#63a651"/>
  <ellipse cx="12" cy="56" rx="7" ry="4" fill="#529044"/>
  <ellipse cx="32" cy="43" rx="21" ry="11" fill="#c2a36c"/>
  <ellipse cx="32" cy="43" rx="16" ry="8" fill="#cdb078"/>
  <!-- building -->
  <rect x="16" y="30" width="28" height="17" fill="#d8bd8f" stroke="#a98f66" stroke-width="0.8"/>
  <path d="M18 30 V47 M42 30 V47 M16 38 H44" stroke="#8a6f4a" stroke-width="1.2"/>
  <!-- thatch roof, ragged eave -->
  <polygon points="13,31 30,17 47,31" fill="#c9a24c"/>
  <polygon points="30,17 47,31 30,31" fill="#a9843a"/>
  <path d="M13 31 q2 1.5 4 0 q2 1.5 4 0 q2 1.5 4 0 q2 1.5 4 0 q2 1.5 4 0 q2 1.5 4 0 q2 1.5 4 0 q2 1.5 4 0 q2 1.5 2.5 0" fill="none" stroke="#8f6e2e" stroke-width="1.4" stroke-linecap="round"/>
  <path d="M20 26 L26 21 M24 28 L32 21.5" stroke="#b8933f" stroke-width="0.9" fill="none"/>
  <!-- door and lit windows -->
  <rect x="27" y="39" width="6" height="8" fill="#5a4530"/>
  <path d="M28 39 Q30 37.4 32 39" fill="#5a4530"/>
  <circle cx="31.6" cy="43.5" r="0.6" fill="#c9a020"/>
  <rect x="19.5" y="33" width="4.5" height="4" fill="#e8c05a" stroke="#8a6f4a" stroke-width="0.7"/>
  <rect x="36" y="33" width="4.5" height="4" fill="#e8c05a" stroke="#8a6f4a" stroke-width="0.7"/>
  <path d="M21.7 33 V37 M38.2 33 V37" stroke="#8a6f4a" stroke-width="0.6"/>
  <!-- hanging sign with mug -->
  <g>
    <rect x="47.2" y="26" width="1.6" height="21" fill="#6b5236"/>
    <path d="M48 28 L54 28 L54 30" stroke="#6b5236" stroke-width="1.4" fill="none"/>
    <rect x="50.5" y="30" width="7" height="7" rx="1" fill="#8a6f4a" stroke="#5f4c33" stroke-width="0.7"/>
    <path d="M52.3 32 h2.6 v3.2 h-2.6 Z" fill="#e8d9b8"/>
    <path d="M54.9 32.6 q1.3 0.9 0 2" fill="none" stroke="#e8d9b8" stroke-width="0.7"/>
    <ellipse cx="53.6" cy="32" rx="1.3" ry="0.5" fill="#f5f0dd"/>
  </g>
  <!-- barrel by the door -->
  <g>
    <path d="M10.5 41 q-1 3.5 0 7 h5 q1 -3.5 0 -7 Z" fill="#8a6f4a"/>
    <path d="M10 42.6 h6 M10 45.4 h6" stroke="#5f4c33" stroke-width="0.8"/>
    <path d="M13 41 V48" stroke="#6b5236" stroke-width="0.6"/>
  </g>
</svg>
