<svg xmlns="http://www.w3.org/2000/svg" viewBox="0 0 64 64">
  <rect width="64" height="64" fill="#565064"/>
  <g fill="#4a4557">
    <ellipse cx="12" cy="12" rx="8" ry="5"/>
    <ellipse cx="54" cy="56" rx="8" ry="4"/>
    <ellipse cx="55" cy="10" rx="6" ry="4"/>
  </g>
  <path d="M8 54 Q9 28 32 20 Q55 28 56 54 Z" fill="#3f3a4a"/>
  <path d="M8 54 Q9 28 32 20 Q42 23.5 48 30 Q38 26 30 27 Q14 31 12 54 Z" fill="#4a4457"/>
  <path d="M22 54 L22 38 Q32 26 42 38 L42 54 Z" fill="#8a8296"/>
  <path d="M24 54 L24 39 Q32 29.5 40 39 L40 54 Z" fill="#100d16"/>
  <g stroke="#6b6377" stroke-width="1" fill="none">
    <path d="M22 44 L24 44 M22 50 L24 50 M40 44 L42 44 M40 50 L42 50 M27 32.5 L25.5 30.8 M32 30 L32 27.8 M37 32.5 L38.5 30.8"/>
  </g>
  <circle cx="29.5" cy="46" r="1" fill="#e0a83c" opacity="0.9"/>
  <circle cx="34.5" cy="46" r="1" fill="#e0a83c" opacity="0.9"/>
  <g>
    <circle cx="16" cy="38" r="6" fill="#e8a83c" opacity="0.12"/>
    <circle cx="16" cy="38" r="3.5" fill="#e8a83c" opacity="0.22"/>
    <rect x="15.3" y="38" width="1.4" height="6" fill="#4a3a28"/>
    <path d="M16 34.5 Q14.6 36.5 16 38.5 Q17.4 36.5 16 34.5" fill="#e8a83c"/>
    <path d="M16 35.8 Q15.3 36.8 16 38 Q16.7 36.8 16 35.8" fill="#f5d06a"/>
    <circle cx="48" cy="38" r="6" fill="#e8a83c" opacity="0.12"/>
    <circle cx="48" cy="38" r="3.5" fill="#e8a83c" opacity="0.22"/>
    <rect x="47.3" y="38" width="1.4" height="6" fill="#4a3a28"/>
    <path d="M48 34.5 Q46.6 36.5 48 38.5 Q49.4 36.5 48 34.5" fill="#e8a83c"/>
    <path d="M48 35.8 Q47.3 36.8 48 38 Q48.7 36.8 48 35.8" fill="#f5d06a"/>
  </g>
  <g fill="#514b5e">
    <rect x="20" y="54" width="24" height="2.4" rx="1"/>
    <rect x="22" y="56.4" width="20" height="2.2" rx="1"/>
  </g>
  <g fill="#e6e1d8">
    <circle cx="12" cy="52" r="1.8"/>
    <ellipse cx="12" cy="54.2" rx="1.2" ry="0.7"/>
  </g>
  <circle cx="11.3" cy="51.8" r="0.45" fill="#2c2830"/>
  <circle cx="12.7" cy="51.8" r="0.45" fill="#2c2830"/>
</svg>
