<svg xmlns="http://www.w3.org/2000/svg" viewBox="0 0 64 64">
  <rect width="64" height="64" fill="#5a9b4a"/>
  <ellipse cx="14" cy="11" rx="8" ry="4.5" fill="#63a651"/>
  <ellipse cx="52" cy="56" rx="7" ry="4" fill="#529044"/>
  <ellipse cx="32" cy="44" rx="21" ry="11" fill="#c2a36c"/>
  <ellipse cx="32" cy="44" rx="16" ry="8" fill="#cdb078"/>
  <!-- shopfront -->
  <rect x="16" y="26" width="30" height="21" fill="#d9c49a" stroke="#a98f66" stroke-width="0.8"/>
  <polygon points="14,27 31,17 48,27" fill="#8a6f4a"/>
  <polygon points="31,17 48,27 31,27" fill="#6b5236"/>
  <path d="M18 24.8 L44 24.8 M22 22.2 L40 22.2" stroke="#7a5f40" stroke-width="0.7" fill="none"/>
  <!-- striped awning: widens toward the viewer at the bottom -->
  <path d="M17 31 L45 31 L48 37 L14 37 Z" fill="#c94f3d"/>
  <path d="M20 31 L17.6 37 M26.5 31 L25.5 37 M35.5 31 L36.5 37 M42 31 L44.4 37" stroke="#eee6d4" stroke-width="3" fill="none"/>
  <path d="M17 31 L45 31 L48 37 L14 37 Z" fill="none" stroke="#8f3a2c" stroke-width="0.8"/>
  <path d="M14 37 q1.7 1.8 3.4 0 q1.7 1.8 3.4 0 q1.7 1.8 3.4 0 q1.7 1.8 3.4 0 q1.7 1.8 3.4 0 q1.7 1.8 3.4 0 q1.7 1.8 3.4 0 q1.7 1.8 3.4 0 q1.7 1.8 3.4 0 q1.7 1.8 3.4 0" fill="none" stroke="#8f3a2c" stroke-width="0.9"/>
  <!-- display window and door -->
  <rect x="19.5" y="40" width="9" height="7" fill="#b9d4d8" stroke="#8a6f4a" stroke-width="0.8"/>
  <path d="M24 40 V47 M19.5 43.5 H28.5" stroke="#8a6f4a" stroke-width="0.6"/>
  <path d="M20.5 45.8 L23 42.6 M22 45.8 L24.4 42.8" stroke="#e6f0f2" stroke-width="0.7"/>
  <rect x="33" y="39" width="7" height="8" fill="#5a4530"/>
  <circle cx="38.8" cy="43.4" r="0.6" fill="#c9a020"/>
  <rect x="30" y="27.4" width="4" height="3" fill="#e8c05a" stroke="#8a6f4a" stroke-width="0.6"/>
  <!-- crates and sack out front -->
  <g>
    <rect x="47.5" y="40" width="7" height="7" fill="#b08d5a" stroke="#7a5f3a" stroke-width="0.7"/>
    <path d="M47.5 40 L54.5 47 M54.5 40 L47.5 47" stroke="#7a5f3a" stroke-width="0.7"/>
    <rect x="49" y="33.5" width="5.5" height="5.5" fill="#c09a63" stroke="#7a5f3a" stroke-width="0.7"/>
    <path d="M49 36.2 H54.5" stroke="#7a5f3a" stroke-width="0.6"/>
  </g>
  <g>
    <path d="M9.5 47 q-1.6 -1.4 -0.8 -3.8 q0.6 -2 2.6 -2.6 q0.3 -1.4 1.6 -1.4 q1.3 0 1.6 1.4 q2 0.6 2.6 2.6 q0.8 2.4 -0.8 3.8 Z" fill="#c9b083"/>
    <path d="M11.4 39.6 q1.4 -0.9 3 0" stroke="#8a744e" stroke-width="0.9" fill="none"/>
    <path d="M10.4 43 q2.5 1 5.2 0" stroke="#8a744e" stroke-width="0.6" fill="none"/>
  </g>
</svg>
