<svg xmlns="http://www.w3.org/2000/svg" viewBox="0 0 64 64">
  <defs>
    <g id="hl">
      <ellipse cx="0" cy="0.5" rx="14" ry="2.5" fill="#4f7d3f" opacity="0.5"/>
      <path d="M-14 0 Q0 -13 14 0 Z" fill="#74ab5e"/>
      <path d="M0 -9.7 Q7 -6 14 0 L0 0 Z" fill="#639a4f"/>
      <path d="M-9 -2.5 Q-3 -8.5 4 -6.5" stroke="#8cbe74" stroke-width="1.6" fill="none" stroke-linecap="round"/>
    </g>
    <g id="t" fill="none" stroke-linecap="round">
      <path d="M0 0 Q-2 -4 -4 -7" stroke="#4b8a3c" stroke-width="1.4"/>
      <path d="M0 0 Q0 -5 -0.5 -8" stroke="#4b8a3c" stroke-width="1.4"/>
      <path d="M0 0 Q2 -4 4 -7" stroke="#4b8a3c" stroke-width="1.4"/>
    </g>
  </defs>
  <rect width="64" height="64" fill="#66a152"/>
  <g fill="#5d974a">
    <ellipse cx="16" cy="14" rx="10" ry="6"/>
    <ellipse cx="50" cy="52" rx="10" ry="6"/>
  </g>
  <use href="#hl" transform="translate(22 30)"/>
  <use href="#hl" transform="translate(44 44) scale(0.85)"/>
  <use href="#hl" transform="translate(46 18) scale(0.7)"/>
  <use href="#t" transform="translate(14 48)"/>
  <use href="#t" transform="translate(34 56) scale(0.8)"/>
</svg>
