<svg xmlns="http://www.w3.org/2000/svg" viewBox="0 0 64 64">
  <defs>
    <g id="hl">
      <ellipse cx="0" cy="0.5" rx="14" ry="2.5" fill="#4f7d3f" opacity="0.5"/>
      <path d="M-14 0 Q0 -13 14 0 Z" fill="#74ab5e"/>
      <path d="M0 -9.7 Q7 -6 14 0 L0 0 Z" fill="#639a4f"/>
      <path d="M-9 -2.5 Q-3 -8.5 4 -6.5" stroke="#8cbe74" stroke-width="1.6" fill="none" stroke-linecap="round"/>
    </g>
    <g id="t" fill="none" stroke-linecap="round">
      <path d="M0 0 Q-2 -4 -4 -7" stroke="#4b8a3c" stroke-width="1.4"/>
      <path d="M0 0 Q0 -5 -0.5 -8" stroke="#4b8a3c" stroke-width="1.4"/>
      <path d="M0 0 Q2 -4 4 -7" stroke="#4b8a3c" stroke-width="1.4"/>
    </g>
  </defs>
  <rect width="64" height="64" fill="#66a152"/>
  <g fill="#5d974a">
    <ellipse cx="14" cy="30" rx="9" ry="6"/>
    <ellipse cx="52" cy="34" rx="8" ry="5"/>
  </g>
  <use href="#hl" transform="translate(32 22) scale(0.8)"/>
  <use href="#hl" transform="translate(20 50) scale(0.9)"/>
  <use href="#hl" transform="translate(46 48) scale(0.8)"/>
  <circle cx="50" cy="16" r="2" fill="#8b9086"/>
  <circle cx="54" cy="17.5" r="1.4" fill="#6e7368"/>
  <use href="#t" transform="translate(12 16)"/>
  <use href="#t" transform="translate(40 36) scale(0.8)"/>
  <use href="#t" transform="translate(30 58) scale(0.75)"/>
</svg>
