<svg xmlns="http://www.w3.org/2000/svg" viewBox="0 0 64 64">
  <rect width="64" height="64" fill="#5a9b4a"/>
  <ellipse cx="51" cy="11" rx="8" ry="4.5" fill="#63a651"/>
  <ellipse cx="12" cy="56" rx="7" ry="4" fill="#529044"/>
  <ellipse cx="32" cy="45" rx="22" ry="10" fill="#c2a36c"/>
  <ellipse cx="32" cy="45" rx="17" ry="7.5" fill="#cdb078"/>
  <!-- banner pole -->
  <g>
    <path d="M50.5 44 L50.5 18" stroke="#6b5236" stroke-width="1.4" stroke-linecap="round"/>
    <path d="M50.5 18.5 L59 20.5 L50.5 24.5 Z" fill="#b03a2e"/>
    <path d="M50.5 18.5 L59 20.5 L54 21.6 Z" fill="#8f2d24"/>
    <circle cx="50.5" cy="17.6" r="0.9" fill="#c9a020"/>
  </g>
  <!-- long low barracks hall -->
  <rect x="12" y="32" width="34" height="12" fill="#b0a284" stroke="#7c6f52" stroke-width="0.8"/>
  <path d="M10.5 32.5 L14.5 26 L43.5 26 L47.5 32.5 Z" fill="#6f5b40"/>
  <path d="M14.5 26 L43.5 26 L47.5 32.5 L29 32.5 Z" fill="#5a4a33"/>
  <path d="M13 30.8 L45 30.8 M14.6 28.6 L43.4 28.6" stroke="#5f4e38" stroke-width="0.7" fill="none"/>
  <!-- door and slit windows -->
  <rect x="26" y="36.5" width="6" height="7.5" fill="#4a3a2c"/>
  <path d="M26 36.5 h6 M29 36.5 V44" stroke="#6b5a44" stroke-width="0.6"/>
  <g fill="#3a3630">
    <rect x="16" y="35" width="2" height="5" rx="1"/>
    <rect x="21" y="35" width="2" height="5" rx="1"/>
    <rect x="36" y="35" width="2" height="5" rx="1"/>
    <rect x="41" y="35" width="2" height="5" rx="1"/>
  </g>
  <!-- palisade section -->
  <g fill="#8a6f4a" stroke="#5f4c33" stroke-width="0.5">
    <path d="M12 56 L12 49.5 L13.6 47.8 L15.2 49.5 L15.2 56 Z"/>
    <path d="M16.2 56 L16.2 49 L17.8 47.3 L19.4 49 L19.4 56 Z"/>
    <path d="M20.4 56 L20.4 49.5 L22 47.8 L23.6 49.5 L23.6 56 Z"/>
  </g>
  <path d="M12 51.5 L23.6 51.5" stroke="#6b5236" stroke-width="1"/>
  <!-- weapon rack: crossed spears and shield -->
  <g>
    <path d="M38 55 L45 46 M45 55 L38 46" stroke="#8a6f4a" stroke-width="1.2" stroke-linecap="round"/>
    <path d="M45 46 L46.4 44.2 L45.8 46.8 Z" fill="#6a6e74"/>
    <path d="M38 46 L36.6 44.2 L37.2 46.8 Z" fill="#6a6e74"/>
    <circle cx="41.5" cy="51" r="3.2" fill="#8c3b30" stroke="#5f4c33" stroke-width="0.7"/>
    <circle cx="41.5" cy="51" r="1" fill="#c9a020"/>
  </g>
  <!-- training dummy -->
  <g>
    <path d="M53 48 L53 42" stroke="#6b5236" stroke-width="1.2" stroke-linecap="round"/>
    <path d="M50.6 43.6 H55.4" stroke="#6b5236" stroke-width="1.1" stroke-linecap="round"/>
    <circle cx="53" cy="41.2" r="1.5" fill="#c9b083"/>
  </g>
</svg>
