<svg xmlns="http://www.w3.org/2000/svg" viewBox="0 0 64 64">
  <rect width="64" height="64" fill="#33719f"/>
  <ellipse cx="42" cy="24" rx="14" ry="8" fill="#2d6591"/>
  <g fill="none" stroke="#a8d4f0">
    <circle cx="18" cy="46" r="3" stroke-width="1.5"/>
    <circle cx="18" cy="46" r="6.5" stroke-width="1" opacity="0.7"/>
    <circle cx="18" cy="46" r="10" stroke-width="0.8" opacity="0.4"/>
  </g>
  <g fill="#8ac2e6">
    <circle cx="50" cy="46" r="1"/>
    <circle cx="10" cy="26" r="0.9"/>
  </g>
  <g fill="none" stroke-linecap="round">
    <path d="M0 16 Q8 10 16 16 T32 16 T48 16 T64 16" stroke="#2a5d87" stroke-width="2.5" transform="translate(0 2.5)"/>
    <path d="M0 16 Q8 10 16 16 T32 16 T48 16 T64 16" stroke="#8ac2e6" stroke-width="2"/>
    <path d="M0 36 Q8 42 16 36 T32 36 T48 36 T64 36" stroke="#2a5d87" stroke-width="2.5" transform="translate(0 2.5)"/>
    <path d="M0 36 Q8 42 16 36 T32 36 T48 36 T64 36" stroke="#8ac2e6" stroke-width="2"/>
    <path d="M0 56 Q8 50 16 56 T32 56 T48 56 T64 56" stroke="#2a5d87" stroke-width="2.5" transform="translate(0 2)"/>
    <path d="M0 56 Q8 50 16 56 T32 56 T48 56 T64 56" stroke="#8ac2e6" stroke-width="2"/>
  </g>
</svg>
