<svg xmlns="http://www.w3.org/2000/svg" viewBox="0 0 64 64">
  <defs>
    <g id="pn">
      <ellipse cx="0" cy="1.5" rx="6.5" ry="2" fill="#d0d8e2"/>
      <path d="M-1.2 1 L1.2 1 L0.9 -2 L-0.9 -2 Z" fill="#5a4634"/>
      <polygon points="-6.5,-1 0,-8 6.5,-1" fill="#2c4635"/>
      <polygon points="-5.2,-6 0,-12.5 5.2,-6" fill="#35543f"/>
      <polygon points="-3.8,-10.5 0,-16.5 3.8,-10.5" fill="#3e6049"/>
      <path d="M-3.8 -10.5 L0 -16.5 L3.8 -10.5 Q1.5 -12 0 -11.4 Q-1.5 -12 -3.8 -10.5 Z"
            fill="#f7fafc" stroke="#b9c4d2" stroke-width="0.6"/>
      <path d="M-6.5 -1 Q-3 -2.6 0 -2.2" stroke="#f7fafc" stroke-width="1.2" fill="none" stroke-linecap="round"/>
    </g>
    <g id="rk">
      <ellipse cx="0" cy="2.5" rx="6" ry="1.6" fill="#d0d8e2"/>
      <path d="M-5.5 2 L-4 -3 L0 -4.5 L4.5 -2.5 L5.5 2 Z" fill="#9aa1ab"/>
      <path d="M0 -4.5 L4.5 -2.5 L5.5 2 L0.5 2 Z" fill="#7f8791"/>
      <path d="M-4 -3 L0 -4.5 L4.5 -2.5 Q0 -1.2 -4 -3 Z" fill="#f7fafc"/>
    </g>
  </defs>
  <rect width="64" height="64" fill="#e9edf3"/>
  <g fill="#dde3ec">
    <ellipse cx="48" cy="18" rx="11" ry="7"/>
    <ellipse cx="16" cy="48" rx="11" ry="7"/>
  </g>
  <g fill="#f1f4f9">
    <ellipse cx="16" cy="14" rx="8" ry="5"/>
    <ellipse cx="48" cy="50" rx="8" ry="5"/>
  </g>
  <!-- Edge band: byte-identical across snow variants, stamped in wrapped
       pairs (a stamp crossing x=0 repeats at +64, likewise y, corners at
       all four) so drifts and pines continue across tile seams. -->
  <g>
    <ellipse cx="0" cy="0" rx="10" ry="6" fill="#dde3ec"/>
    <ellipse cx="64" cy="0" rx="10" ry="6" fill="#dde3ec"/>
    <ellipse cx="0" cy="64" rx="10" ry="6" fill="#dde3ec"/>
    <ellipse cx="64" cy="64" rx="10" ry="6" fill="#dde3ec"/>
    <ellipse cx="-1" cy="30" rx="8" ry="5" fill="#f1f4f9"/>
    <ellipse cx="63" cy="30" rx="8" ry="5" fill="#f1f4f9"/>
    <ellipse cx="20" cy="3" rx="8" ry="5" fill="#dde3ec"/>
    <ellipse cx="20" cy="67" rx="8" ry="5" fill="#dde3ec"/>
    <ellipse cx="36" cy="-3" rx="7" ry="4.5" fill="#f1f4f9"/>
    <ellipse cx="36" cy="61" rx="7" ry="4.5" fill="#f1f4f9"/>
    <use href="#pn" transform="translate(1 22) scale(0.85)"/>
    <use href="#pn" transform="translate(65 22) scale(0.85)"/>
    <use href="#pn" transform="translate(44 2) scale(0.8)"/>
    <use href="#pn" transform="translate(44 66) scale(0.8)"/>
    <use href="#pn" transform="translate(10 5) scale(-0.75 0.75)"/>
    <use href="#pn" transform="translate(10 69) scale(-0.75 0.75)"/>
    <use href="#rk" transform="translate(-1 52) scale(0.7)"/>
    <use href="#rk" transform="translate(63 52) scale(0.7)"/>
  </g>
  <path d="M14 38 Q20 35 26 38 Q32 41 38 38" stroke="#cfd7e2" stroke-width="2" fill="none" stroke-linecap="round"/>
  <path d="M24 57 Q30 54 36 57" stroke="#cfd7e2" stroke-width="2" fill="none" stroke-linecap="round"/>
  <g fill="#ffffff">
    <circle cx="52" cy="12" r="0.9"/><circle cx="12" cy="20" r="0.8"/>
    <circle cx="30" cy="16" r="0.7"/><circle cx="50" cy="42" r="0.8"/>
    <circle cx="22" cy="56" r="0.8"/>
  </g>
  <!-- Standing elements, farthest first. -->
  <use href="#pn" transform="translate(16 28) scale(0.75)"/>
  <use href="#pn" transform="translate(40 34)"/>
  <use href="#rk" transform="translate(56 30) scale(0.7)"/>
</svg>
