<svg xmlns="http://www.w3.org/2000/svg" viewBox="0 0 64 64">
  <defs><g id="pn">
    <ellipse cx="0" cy="1.5" rx="7" ry="2.2" fill="#d5dce6"/>
    <path d="M-1 1 L1 1 L0.7 -2 L-0.7 -2 Z" fill="#5a4634"/>
    <polygon points="-6,-1 0,-15 6,-1" fill="#2f4a38"/>
    <polygon points="-4,-5.5 0,-15 4,-5.5" fill="#3a5a44"/>
    <polygon points="-2.6,-9.5 0,-15 2.6,-9.5" fill="#f2f6fa"/>
  </g></defs>
  <rect width="64" height="64" fill="#e9edf3"/>
  <g fill="#dfe5ee">
    <ellipse cx="32" cy="14" rx="12" ry="6"/>
    <ellipse cx="18" cy="40" rx="9" ry="6"/>
  </g>
  <g fill="#f3f6fa">
    <ellipse cx="50" cy="30" rx="9" ry="6"/>
    <ellipse cx="34" cy="52" rx="10" ry="5"/>
  </g>
  <use href="#pn" transform="translate(50 50) scale(0.85)"/>
  <use href="#pn" transform="translate(14 22) scale(0.8)"/>
  <polygon points="26,32 30,25 35,32" fill="#aab2bd"/>
  <polygon points="30,25 30,32 35,32" fill="#8e96a2"/>
  <polygon points="34,30 37,25.5 40,30" fill="#b8bfc9"/>
  <path d="M26 32 L29 30 L32 31.4 L35 32" stroke="#f2f6fa" stroke-width="1.4" fill="none" stroke-linecap="round"/>
  <g fill="#ffffff">
    <circle cx="54" cy="14" r="0.9"/><circle cx="12" cy="54" r="0.8"/>
    <circle cx="44" cy="40" r="0.7"/><circle cx="22" cy="50" r="0.8"/>
  </g>
</svg>
