<svg xmlns="http://www.w3.org/2000/svg" viewBox="0 0 64 64">
  <defs>
    <g id="pn">
      <ellipse cx="0" cy="1.5" rx="6.5" ry="2" fill="#d0d8e2"/>
      <path d="M-1.2 1 L1.2 1 L0.9 -2 L-0.9 -2 Z" fill="#5a4634"/>
      <polygon points="-6.5,-1 0,-8 6.5,-1" fill="#2c4635"/>
      <polygon points="-5.2,-6 0,-12.5 5.2,-6" fill="#35543f"/>
      <polygon points="-3.8,-10.5 0,-16.5 3.8,-10.5" fill="#3e6049"/>
      <path d="M-3.8 -10.5 L0 -16.5 L3.8 -10.5 Q1.5 -12 0 -11.4 Q-1.5 -12 -3.8 -10.5 Z"
            fill="#f7fafc" stroke="#b9c4d2" stroke-width="0.6"/>
      <path d="M-6.5 -1 Q-3 -2.6 0 -2.2" stroke="#f7fafc" stroke-width="1.2" fill="none" stroke-linecap="round"/>
    </g>
    <g id="rk">
      <ellipse cx="0" cy="2.5" rx="6" ry="1.6" fill="#d0d8e2"/>
      <path d="M-5.5 2 L-4 -3 L0 -4.5 L4.5 -2.5 L5.5 2 Z" fill="#9aa1ab"/>
      <path d="M0 -4.5 L4.5 -2.5 L5.5 2 L0.5 2 Z" fill="#7f8791"/>
      <path d="M-4 -3 L0 -4.5 L4.5 -2.5 Q0 -1.2 -4 -3 Z" fill="#f7fafc"/>
    </g>
  </defs>
  <rect width="64" height="64" fill="#e9edf3"/>
  <g fill="#dde3ec">
    <ellipse cx="16" cy="18" rx="11" ry="7"/>
    <ellipse cx="46" cy="44" rx="13" ry="8"/>
  </g>
  <g fill="#f1f4f9">
    <ellipse cx="46" cy="14" rx="9" ry="6"/>
    <ellipse cx="14" cy="46" rx="9" ry="6"/>
  </g>
  <path d="M12 34 Q18 31 24 34 Q30 37 36 34" stroke="#cfd7e2" stroke-width="2" fill="none" stroke-linecap="round"/>
  <g fill="#ffffff">
    <circle cx="12" cy="14" r="0.9"/><circle cx="52" cy="34" r="0.8"/>
    <circle cx="28" cy="44" r="0.7"/><circle cx="40" cy="12" r="0.8"/>
  </g>
  <!-- Standing elements, farthest (highest base) first. -->
  <use href="#pn" transform="translate(44 24) scale(0.8)"/>
  <use href="#pn" transform="translate(20 30)"/>
  <use href="#rk" transform="translate(52 49) scale(0.9)"/>
  <use href="#pn" transform="translate(36 52) scale(0.9)"/>
</svg>
