<svg xmlns="http://www.w3.org/2000/svg" viewBox="0 0 64 64">
  <rect width="64" height="64" fill="#5a9b4a"/>
  <ellipse cx="14" cy="12" rx="9" ry="5" fill="#63a651"/>
  <ellipse cx="32" cy="42" rx="21" ry="11" fill="#c2a36c"/>
  <ellipse cx="32" cy="42" rx="16" ry="8" fill="#cdb078"/>
  <g>
    <rect x="12" y="32" width="14" height="12" fill="#d8bd8f"/>
    <rect x="12" y="32" width="14" height="12" fill="none" stroke="#a98f66" stroke-width="0.8"/>
    <polygon points="10,32 19,21 28,32" fill="#b04b32"/>
    <polygon points="19,21 28,32 19,32" fill="#8f3a26"/>
    <rect x="17" y="38" width="4" height="6" fill="#5a4530"/>
    <rect x="13.8" y="34.5" width="3.5" height="3" fill="#7a6a4a" stroke="#5f5138" stroke-width="0.6"/>
  </g>
  <g>
    <rect x="34" y="28" width="20" height="16" fill="#e0c79a"/>
    <rect x="34" y="28" width="20" height="16" fill="none" stroke="#b09368" stroke-width="0.8"/>
    <polygon points="32,28 44,15 56,28" fill="#7a3323"/>
    <polygon points="44,15 56,28 44,28" fill="#5f2719"/>
    <rect x="49" y="17" width="3" height="6" fill="#8a8f94"/>
    <rect x="41" y="36" width="6" height="8" fill="#5a4530"/>
    <circle cx="45.8" cy="40" r="0.6" fill="#c9a020"/>
    <rect x="36" y="31" width="4" height="4" fill="#7a6a4a" stroke="#5f5138" stroke-width="0.6"/>
    <rect x="49" y="31" width="4" height="4" fill="#7a6a4a" stroke="#5f5138" stroke-width="0.6"/>
  </g>
  <g fill="#8a6f4a">
    <rect x="7" y="49" width="1.6" height="5.5"/>
    <rect x="13" y="50" width="1.6" height="5.5"/>
    <rect x="19" y="49.5" width="1.6" height="5.5"/>
  </g>
  <path d="M7 51.5 L21 51.8" stroke="#8a6f4a" stroke-width="1.2" fill="none"/>
  <g>
    <ellipse cx="52" cy="52" rx="6" ry="3" fill="#2b5228" opacity="0.5"/>
    <path d="M51.2 52 L51 47 L53 47 L52.8 52 Z" fill="#5a4028"/>
    <circle cx="50" cy="45" r="3.5" fill="#3f7a34"/>
    <circle cx="54" cy="44" r="3.8" fill="#3f7a34"/>
    <circle cx="52" cy="41.5" r="3.2" fill="#4c8a40"/>
  </g>
</svg>
