<svg xmlns="http://www.w3.org/2000/svg" viewBox="0 0 64 64">
  <rect width="64" height="64" fill="#5a9b4a"/>
  <ellipse cx="14" cy="54" rx="8" ry="4" fill="#529044"/>
  <ellipse cx="52" cy="50" rx="7" ry="4" fill="#63a651"/>
  <ellipse cx="32" cy="48" rx="15" ry="7" fill="#c2a36c"/>
  <ellipse cx="32" cy="48" rx="11" ry="5" fill="#cdb078"/>
  <!-- night sparkles -->
  <g fill="#e8e2c0">
    <path d="M12 14 l0.7 1.8 1.8 0.7 -1.8 0.7 -0.7 1.8 -0.7 -1.8 -1.8 -0.7 1.8 -0.7 Z"/>
    <path d="M51 20 l0.6 1.5 1.5 0.6 -1.5 0.6 -0.6 1.5 -0.6 -1.5 -1.5 -0.6 1.5 -0.6 Z"/>
    <circle cx="18" cy="26" r="0.7"/>
    <circle cx="48" cy="10" r="0.7"/>
  </g>
  <!-- tower body -->
  <path d="M26 50 L27 18 L37 18 L38 50 Z" fill="#8f8a9e"/>
  <path d="M26 50 L27 18 L31.5 18 L31 50 Z" fill="#9d98ac"/>
  <path d="M27.4 26 L36.7 26 M27 34 L37.2 34 M26.7 42 L37.5 42" stroke="#767185" stroke-width="0.7" fill="none"/>
  <path d="M31 22 h2.6 M29 30 h2.6 M33 38 h2.6 M29.5 46 h2.6" stroke="#767185" stroke-width="0.7"/>
  <!-- balcony ring -->
  <path d="M25 36.5 h14 v2 h-14 Z" fill="#7c7790"/>
  <!-- conical purple roof -->
  <path d="M24.6 18.5 L32 5.5 L39.4 18.5 Z" fill="#6b4a8c"/>
  <path d="M32 5.5 L39.4 18.5 L32.6 18.5 Z" fill="#523a6d"/>
  <path d="M24.6 18.5 L32 5.5 L33.8 8.6 L27.6 18.5 Z" fill="#7d5ba0"/>
  <circle cx="32" cy="5.2" r="1.3" fill="#e8d27a"/>
  <!-- glowing arched window -->
  <circle cx="32" cy="27.5" r="6" fill="#7ec8e8" opacity="0.14"/>
  <path d="M29.8 30.5 L29.8 26.5 Q32 24 34.2 26.5 L34.2 30.5 Z" fill="#7ec8e8"/>
  <path d="M32 25 V30.5 M29.8 28 H34.2" stroke="#5a7f96" stroke-width="0.6"/>
  <!-- door -->
  <path d="M29.4 50 L29.4 45 Q32 42.6 34.6 45 L34.6 50 Z" fill="#4a3a5c"/>
  <circle cx="33.8" cy="47.6" r="0.6" fill="#c9a020"/>
  <path d="M23 53.5 Q32 51.8 41 53.5" stroke="#b09a63" stroke-width="1" fill="none" stroke-linecap="round"/>
</svg>
