<svg xmlns="http://www.w3.org/2000/svg" viewBox="0 0 64 64">
  <rect width="64" height="64" fill="#5a9b4a"/>
  <ellipse cx="50" cy="10" rx="9" ry="5" fill="#529044"/>
  <ellipse cx="12" cy="56" rx="8" ry="4" fill="#63a651"/>
  <ellipse cx="32" cy="38" rx="23" ry="14" fill="#557f43"/>
  <ellipse cx="32" cy="38" rx="17" ry="10" fill="#4f7a3e"/>
  <!-- Dead tree with a crow perched on the high branch. -->
  <g>
    <ellipse cx="51" cy="30" rx="5" ry="1.8" fill="#42522f" opacity="0.6"/>
    <path d="M51 29 L50.4 19 L50 12" stroke="#4a3a26" stroke-width="2.2" fill="none" stroke-linecap="round"/>
    <path d="M50.4 19 L45 14 M50.2 16 L55 10 M50.1 14 L47 9 M50.6 22 L54 20" stroke="#4a3a26" stroke-width="1.4" fill="none" stroke-linecap="round"/>
    <path d="M46 13.2 L45 14" stroke="#3a2e1e" stroke-width="0.8"/>
    <g>
      <ellipse cx="54.2" cy="9.2" rx="1.4" ry="1" fill="#26222b"/>
      <circle cx="55.4" cy="8.5" r="0.7" fill="#26222b"/>
      <path d="M56 8.5 L56.8 8.7 L56 9 Z" fill="#8a8f94"/>
      <path d="M53.2 10 L52.6 10.6" stroke="#26222b" stroke-width="0.5"/>
    </g>
  </g>
  <!-- Headstones in loose rows: rounded slabs with inscriptions, a celtic
       cross, an obelisk, and one slab leaning half-sunk. -->
  <g>
    <ellipse cx="17" cy="27" rx="3.5" ry="1.2" fill="#42522f" opacity="0.5"/>
    <path d="M14.5 27 L14.5 21 Q17 18.5 19.5 21 L19.5 27 Z" fill="#9aa1ab"/>
    <path d="M14.5 27 L14.5 21 Q15.5 20 17 20 L17 27 Z" fill="#b3b9c2"/>
    <path d="M15.8 22.5 L18.2 22.5 M15.8 24 L18.2 24 M16.3 25.5 L17.7 25.5" stroke="#7f8791" stroke-width="0.5"/>
    <ellipse cx="15.5" cy="25.8" rx="0.9" ry="0.6" fill="#6a9440" opacity="0.9"/>
  </g>
  <g>
    <ellipse cx="31" cy="25" rx="3" ry="1.1" fill="#42522f" opacity="0.5"/>
    <rect x="29.8" y="14" width="2.4" height="11" fill="#9aa1ab"/>
    <rect x="27" y="16.5" width="8" height="2.4" fill="#9aa1ab"/>
    <circle cx="31" cy="17.7" r="2" fill="none" stroke="#9aa1ab" stroke-width="0.9"/>
    <rect x="29.8" y="14" width="1" height="11" fill="#b3b9c2"/>
    <path d="M27 17.3 L29.8 17.3 M32.2 17.3 L35 17.3" stroke="#7f8791" stroke-width="0.4"/>
  </g>
  <g>
    <ellipse cx="42" cy="28" rx="2.6" ry="1" fill="#42522f" opacity="0.5"/>
    <path d="M40.6 28 L41 17.5 L42 15.5 L43 17.5 L43.4 28 Z" fill="#9aa1ab"/>
    <path d="M41 17.5 L42 15.5 L42 28 L40.6 28 Z" fill="#b3b9c2"/>
    <path d="M41.2 20 L42.8 20" stroke="#7f8791" stroke-width="0.4"/>
  </g>
  <g>
    <ellipse cx="23" cy="40" rx="3.5" ry="1.2" fill="#42522f" opacity="0.5"/>
    <path d="M20.5 40 L21 33 Q23.5 31 25.5 33.5 L25 40 Z" fill="#8a9199" transform="rotate(-7 23 37)"/>
    <path d="M21.8 35 L24.2 35 M22 36.6 L24 36.6" stroke="#6f767e" stroke-width="0.5" transform="rotate(-7 23 37)"/>
    <path d="M22.5 33.5 L23.5 36" stroke="#6f767e" stroke-width="0.4" fill="none"/>
  </g>
  <g>
    <ellipse cx="36" cy="42" rx="3.5" ry="1.2" fill="#42522f" opacity="0.5"/>
    <path d="M33.5 42 L33.5 35.5 Q36 33 38.5 35.5 L38.5 42 Z" fill="#9aa1ab"/>
    <path d="M33.5 42 L33.5 35.5 Q34.5 34.4 36 34.2 L36 42 Z" fill="#b3b9c2"/>
    <path d="M34.8 37 L37.2 37 M34.8 38.8 L37.2 38.8" stroke="#7f8791" stroke-width="0.6"/>
  </g>
  <g>
    <ellipse cx="46" cy="46" rx="3" ry="1.1" fill="#42522f" opacity="0.5"/>
    <path d="M43.8 46 L43.8 41 Q46 39 48.2 41 L48.2 46 Z" fill="#9aa1ab"/>
    <path d="M44.8 42.5 L47.2 42.5" stroke="#7f8791" stroke-width="0.5"/>
    <ellipse cx="47.5" cy="44.8" rx="0.9" ry="0.6" fill="#6a9440" opacity="0.9"/>
  </g>
  <!-- Fresh mound with flowers laid on it, and a wilted bouquet by a slab. -->
  <g>
    <ellipse cx="30" cy="50" rx="4.5" ry="1.8" fill="#7a5f3d"/>
    <path d="M28.5 49.6 L30 49 L31.5 49.8" stroke="#4c6531" stroke-width="0.6" fill="none"/>
    <circle cx="28.7" cy="49.3" r="0.6" fill="#c95c7a"/>
    <circle cx="30.2" cy="48.8" r="0.6" fill="#d8b23a"/>
    <circle cx="31.4" cy="49.5" r="0.6" fill="#c95c7a"/>
  </g>
  <g>
    <path d="M34.2 43.5 Q35 44.5 36 44.4" stroke="#4c6531" stroke-width="0.5" fill="none"/>
    <circle cx="34.2" cy="43.4" r="0.5" fill="#d8b23a"/>
  </g>
  <!-- Wrought-iron fence with spear finials and a sagging gate, along the
       near and left edges of the yard. -->
  <g stroke="#3a362f" stroke-width="1" fill="none">
    <path d="M12 44 L12 37 M16 45.2 L16 38.2 M20 46.4 L20 39.4"/>
    <path d="M11 39.5 L21 41.7 M11 42.5 L21 44.7"/>
  </g>
  <g fill="#3a362f">
    <path d="M11.4 37.4 L12 36 L12.6 37.4 Z"/>
    <path d="M15.4 38.6 L16 37.2 L16.6 38.6 Z"/>
    <path d="M19.4 39.8 L20 38.4 L20.6 39.8 Z"/>
  </g>
  <g stroke="#3a362f" stroke-width="0.9" fill="none">
    <path d="M24 47.5 L24 41.5 M27.5 48 L27.8 42.5"/>
    <path d="M23.5 43 L28.3 44 M23.5 45.5 L28 46.4"/>
  </g>
  <path d="M23.4 41.9 L24 40.6 L24.6 41.9 Z" fill="#3a362f"/>
  <!-- Worn path to the gate. -->
  <path d="M25 60 Q25.5 55 26 50 Q27 52 27.5 55 Q27 58 26.8 61 Z" fill="#7a6a4a" opacity="0.7"/>
</svg>
