<svg xmlns="http://www.w3.org/2000/svg" viewBox="0 0 64 64">
  <rect width="64" height="64" fill="#9aa0a6"/>
  <g fill="#878e94">
    <circle cx="52" cy="10" r="1.2"/><circle cx="10" cy="20" r="1.1"/>
    <circle cx="56" cy="58" r="1.3"/><circle cx="8" cy="58" r="1"/>
  </g>
  <ellipse cx="33" cy="55" rx="26" ry="4" fill="#8a9096"/>
  <polygon points="4,56 14,42 24,56" fill="#7d848c"/>
  <polygon points="14,42 14,56 24,56" fill="#5b6167"/>
  <polygon points="14,56 32,12 50,56" fill="#7d848c"/>
  <polygon points="32,12 32,56 50,56" fill="#5b6167"/>
  <polygon points="32,12 39,26 35.5,23.4 32,27 28.5,23.4 25,26" fill="#eef2f5"/>
  <path d="M32 12 L32 56" stroke="#4e545a" stroke-width="1" opacity="0.4"/>
  <path d="M32 27 L30 34 M32 30 L34.5 38" stroke="#e3e9ee" stroke-width="1.2" fill="none" opacity="0.7"/>
</svg>
