<svg xmlns="http://www.w3.org/2000/svg" viewBox="0 0 64 64">
  <defs>
    <g id="er">
      <polygon points="-7,4 -2,-4 3,4" fill="#7d848c"/>
      <polygon points="-2,-4 -2,4 3,4" fill="#5b6167"/>
      <polygon points="2,5 6,-2 10,5" fill="#757c84"/>
      <polygon points="6,-2 6,5 10,5" fill="#545a60"/>
    </g>
  </defs>
  <rect width="64" height="64" fill="#9aa0a6"/>
  <g fill="#878e94">
    <circle cx="52" cy="10" r="1.2"/><circle cx="10" cy="20" r="1.1"/>
    <circle cx="56" cy="58" r="1.3"/><circle cx="8" cy="58" r="1"/>
  </g>
  <!-- Mid-ground ridge + edge outcrops: byte-identical across mountain
       variants; the ridge is phase-continuous at x=0/x=64 (same point, same
       tangent) and the outcrops are stamped in wrapped pairs (x=0 repeats at
       x=64, y=0 at y=64), so ranges run unbroken across tile seams. -->
  <path d="M0 36 L10 30 L18 35 L26 27 L34 34 L43 29 L54 42 L64 36 L64 50 L0 50 Z" fill="#8a9096"/>
  <g>
    <use href="#er" transform="translate(0 0)"/>
    <use href="#er" transform="translate(64 0)"/>
    <use href="#er" transform="translate(0 64)"/>
    <use href="#er" transform="translate(64 64)"/>
    <use href="#er" transform="translate(0 14) scale(0.8)"/>
    <use href="#er" transform="translate(64 14) scale(0.8)"/>
    <use href="#er" transform="translate(0 44) scale(0.9)"/>
    <use href="#er" transform="translate(64 44) scale(0.9)"/>
    <use href="#er" transform="translate(20 0) scale(0.9)"/>
    <use href="#er" transform="translate(20 64) scale(0.9)"/>
    <use href="#er" transform="translate(46 0) scale(0.8)"/>
    <use href="#er" transform="translate(46 64) scale(0.8)"/>
  </g>
  <polygon points="4,56 14,42 24,56" fill="#7d848c"/>
  <polygon points="14,42 14,56 24,56" fill="#5b6167"/>
  <polygon points="14,56 32,12 50,56" fill="#7d848c"/>
  <polygon points="32,12 32,56 50,56" fill="#5b6167"/>
  <polygon points="32,12 39,26 35.5,23.4 32,27 28.5,23.4 25,26" fill="#eef2f5"/>
  <path d="M32 12 L32 56" stroke="#4e545a" stroke-width="1" opacity="0.4"/>
  <path d="M32 27 L30 34 M32 30 L34.5 38" stroke="#e3e9ee" stroke-width="1.2" fill="none" opacity="0.7"/>
</svg>
