<svg xmlns="http://www.w3.org/2000/svg" viewBox="0 0 64 64">
  <defs>
    <g id="er">
      <polygon points="-7,4 -2,-4 3,4" fill="#7d848c"/>
      <polygon points="-2,-4 -2,4 3,4" fill="#5b6167"/>
      <polygon points="2,5 6,-2 10,5" fill="#757c84"/>
      <polygon points="6,-2 6,5 10,5" fill="#545a60"/>
    </g>
  </defs>
  <rect width="64" height="64" fill="#9aa0a6"/>
  <g fill="#878e94">
    <circle cx="8" cy="10" r="1.2"/><circle cx="56" cy="12" r="1.3"/>
    <circle cx="32" cy="60" r="1.1"/>
  </g>
  <!-- Mid-ground ridge + edge outcrops: byte-identical across mountain
       variants; the ridge is phase-continuous at x=0/x=64 (same point, same
       tangent) and the outcrops are stamped in wrapped pairs (x=0 repeats at
       x=64, y=0 at y=64), so ranges run unbroken across tile seams. -->
  <path d="M0 36 L10 30 L18 35 L26 27 L34 34 L43 29 L54 42 L64 36 L64 50 L0 50 Z" fill="#8a9096"/>
  <g>
    <use href="#er" transform="translate(0 0)"/>
    <use href="#er" transform="translate(64 0)"/>
    <use href="#er" transform="translate(0 64)"/>
    <use href="#er" transform="translate(64 64)"/>
    <use href="#er" transform="translate(0 14) scale(0.8)"/>
    <use href="#er" transform="translate(64 14) scale(0.8)"/>
    <use href="#er" transform="translate(0 44) scale(0.9)"/>
    <use href="#er" transform="translate(64 44) scale(0.9)"/>
    <use href="#er" transform="translate(20 0) scale(0.9)"/>
    <use href="#er" transform="translate(20 64) scale(0.9)"/>
    <use href="#er" transform="translate(46 0) scale(0.8)"/>
    <use href="#er" transform="translate(46 64) scale(0.8)"/>
  </g>
  <polygon points="4,54 16,26 28,54" fill="#757c84"/>
  <polygon points="16,26 16,54 28,54" fill="#545a60"/>
  <polygon points="36,54 48,24 60,54" fill="#757c84"/>
  <polygon points="48,24 48,54 60,54" fill="#545a60"/>
  <polygon points="18,54 32,16 46,54" fill="#7d848c"/>
  <polygon points="32,16 32,54 46,54" fill="#5b6167"/>
  <polygon points="16,26 19.5,33 17.6,31.6 16,34 14.4,31.6 12.5,33" fill="#e3e9ee"/>
  <polygon points="32,16 36.5,25 34.2,23.2 32,26 29.8,23.2 27.5,25" fill="#eef2f5"/>
  <polygon points="48,24 51.5,31 49.6,29.6 48,32 46.4,29.6 44.5,31" fill="#e3e9ee"/>
  <path d="M32 16 L32 54" stroke="#4e545a" stroke-width="1" opacity="0.4"/>
</svg>
