<svg xmlns="http://www.w3.org/2000/svg" viewBox="0 0 64 64">
  <defs><g id="rd" fill="none" stroke-linecap="round">
    <path d="M0 0 Q-2 -6 -4 -10" stroke="#6b7d3f" stroke-width="1.4"/>
    <path d="M0 0 Q-0.5 -7 -1 -12" stroke="#7a8c4a" stroke-width="1.4"/>
    <path d="M0 0 Q2 -6 3.5 -9" stroke="#6b7d3f" stroke-width="1.4"/>
    <path d="M-1 -12 L-1 -15.5" stroke="#7a8c4a" stroke-width="0.9"/>
    <ellipse cx="-1" cy="-12.5" rx="0.9" ry="2.6" fill="#5a4a30"/>
  </g></defs>
  <rect width="64" height="64" fill="#4f5f3c"/>
  <g fill="#475738">
    <ellipse cx="48" cy="16" rx="10" ry="6"/>
    <ellipse cx="14" cy="46" rx="9" ry="6"/>
  </g>
  <g fill="#576741">
    <ellipse cx="14" cy="14" rx="7" ry="5"/>
    <ellipse cx="50" cy="48" rx="8" ry="5"/>
  </g>
  <!-- Edge band: byte-identical across swamp variants, stamped in wrapped
       pairs (a stamp crossing x=0 repeats at +64, likewise y, corners at
       all four) so murk and reeds continue across tile seams. -->
  <g>
    <ellipse cx="0" cy="0" rx="10" ry="6" fill="#475738"/>
    <ellipse cx="64" cy="0" rx="10" ry="6" fill="#475738"/>
    <ellipse cx="0" cy="64" rx="10" ry="6" fill="#475738"/>
    <ellipse cx="64" cy="64" rx="10" ry="6" fill="#475738"/>
    <ellipse cx="-1" cy="38" rx="8" ry="5" fill="#576741"/>
    <ellipse cx="63" cy="38" rx="8" ry="5" fill="#576741"/>
    <ellipse cx="34" cy="-1" rx="9" ry="5" fill="#475738"/>
    <ellipse cx="34" cy="63" rx="9" ry="5" fill="#475738"/>
    <use href="#rd" transform="translate(1 20) scale(0.85)"/>
    <use href="#rd" transform="translate(65 20) scale(0.85)"/>
    <use href="#rd" transform="translate(56 2) scale(0.8)"/>
    <use href="#rd" transform="translate(56 66) scale(0.8)"/>
    <use href="#rd" transform="translate(22 1) scale(-0.9 0.9)"/>
    <use href="#rd" transform="translate(22 65) scale(-0.9 0.9)"/>
  </g>
  <ellipse cx="40" cy="42" rx="12" ry="7" fill="#3a4d46"/>
  <ellipse cx="40" cy="42" rx="12" ry="7" fill="none" stroke="#32423c" stroke-width="1"/>
  <ellipse cx="37" cy="40" rx="7" ry="3.5" fill="#44584f"/>
  <ellipse cx="45" cy="44" rx="2.4" ry="1.4" fill="#5f7a3d"/>
  <path d="M45 44 L47.6 43.3" stroke="#4c6531" stroke-width="0.8"/>
  <!-- Standing elements, farthest first: reed, dead tree, pool reed, near reed. -->
  <use href="#rd" transform="translate(44 16) scale(0.75)"/>
  <g>
    <ellipse cx="25" cy="31" rx="5" ry="1.6" fill="#42522f" opacity="0.7"/>
    <path d="M25 30 L24.4 20 L24 12" stroke="#4a3a26" stroke-width="2.4" fill="none" stroke-linecap="round"/>
    <path d="M24.4 20 L19 15 M24.2 17 L29 11 M24.1 14 L21 10" stroke="#4a3a26" stroke-width="1.5" fill="none" stroke-linecap="round"/>
  </g>
  <use href="#rd" transform="translate(52 32) scale(0.85)"/>
  <use href="#rd" transform="translate(30 44)"/>
  <use href="#rd" transform="translate(14 56) scale(0.9)"/>
</svg>
