<svg xmlns="http://www.w3.org/2000/svg" viewBox="0 0 64 64">
  <defs><g id="rd" fill="none" stroke-linecap="round">
    <path d="M0 0 Q-1.5 -5 -3 -9" stroke="#6b7d3f" stroke-width="1.4"/>
    <path d="M0 0 Q0 -6 0.5 -10.5" stroke="#7a8c4a" stroke-width="1.4"/>
    <path d="M0 0 Q2 -5 3.5 -8" stroke="#6b7d3f" stroke-width="1.4"/>
    <ellipse cx="0.5" cy="-10.5" rx="1" ry="2" fill="#5a4a30"/>
  </g></defs>
  <rect width="64" height="64" fill="#4f5f3c"/>
  <g fill="#475738">
    <ellipse cx="16" cy="16" rx="9" ry="6"/>
    <ellipse cx="46" cy="34" rx="10" ry="6"/>
  </g>
  <g fill="#576741">
    <ellipse cx="48" cy="14" rx="7" ry="4"/>
    <ellipse cx="16" cy="34" rx="7" ry="4"/>
  </g>
  <ellipse cx="20" cy="24" rx="9" ry="5" fill="#3d5049"/>
  <ellipse cx="20" cy="24" rx="9" ry="5" fill="none" stroke="#35463f" stroke-width="1"/>
  <ellipse cx="42" cy="52" rx="10" ry="5.5" fill="#3d5049"/>
  <ellipse cx="42" cy="52" rx="10" ry="5.5" fill="none" stroke="#35463f" stroke-width="1"/>
  <ellipse cx="18" cy="25" rx="2" ry="1.2" fill="#5f7a3d"/>
  <ellipse cx="45" cy="51" rx="2.2" ry="1.3" fill="#5f7a3d"/>
  <path d="M40 51 Q44 49 48 51" stroke="#4a5c54" stroke-width="1" fill="none" opacity="0.8"/>
  <use href="#rd" transform="translate(32 26)"/>
  <use href="#rd" transform="translate(12 44) scale(0.85)"/>
  <use href="#rd" transform="translate(52 44) scale(0.9)"/>
  <use href="#rd" transform="translate(28 56) scale(0.75)"/>
</svg>
