<svg xmlns="http://www.w3.org/2000/svg" viewBox="0 0 64 64">
  <defs><g id="rd" fill="none" stroke-linecap="round">
    <path d="M0 0 Q-2 -6 -4 -10" stroke="#6b7d3f" stroke-width="1.4"/>
    <path d="M0 0 Q-0.5 -7 -1 -12" stroke="#7a8c4a" stroke-width="1.4"/>
    <path d="M0 0 Q2 -6 3.5 -9" stroke="#6b7d3f" stroke-width="1.4"/>
    <path d="M-1 -12 L-1 -15.5" stroke="#7a8c4a" stroke-width="0.9"/>
    <ellipse cx="-1" cy="-12.5" rx="0.9" ry="2.6" fill="#5a4a30"/>
  </g></defs>
  <rect width="64" height="64" fill="#4f5f3c"/>
  <g fill="#475738">
    <ellipse cx="16" cy="16" rx="9" ry="6"/>
    <ellipse cx="46" cy="34" rx="10" ry="6"/>
  </g>
  <g fill="#576741">
    <ellipse cx="48" cy="14" rx="7" ry="4"/>
    <ellipse cx="16" cy="34" rx="7" ry="4"/>
  </g>
  <!-- Edge band: byte-identical across swamp variants, stamped in wrapped
       pairs (a stamp crossing x=0 repeats at +64, likewise y, corners at
       all four) so murk and reeds continue across tile seams. -->
  <g>
    <ellipse cx="0" cy="0" rx="10" ry="6" fill="#475738"/>
    <ellipse cx="64" cy="0" rx="10" ry="6" fill="#475738"/>
    <ellipse cx="0" cy="64" rx="10" ry="6" fill="#475738"/>
    <ellipse cx="64" cy="64" rx="10" ry="6" fill="#475738"/>
    <ellipse cx="-1" cy="38" rx="8" ry="5" fill="#576741"/>
    <ellipse cx="63" cy="38" rx="8" ry="5" fill="#576741"/>
    <ellipse cx="34" cy="-1" rx="9" ry="5" fill="#475738"/>
    <ellipse cx="34" cy="63" rx="9" ry="5" fill="#475738"/>
    <use href="#rd" transform="translate(1 20) scale(0.85)"/>
    <use href="#rd" transform="translate(65 20) scale(0.85)"/>
    <use href="#rd" transform="translate(56 2) scale(0.8)"/>
    <use href="#rd" transform="translate(56 66) scale(0.8)"/>
    <use href="#rd" transform="translate(22 1) scale(-0.9 0.9)"/>
    <use href="#rd" transform="translate(22 65) scale(-0.9 0.9)"/>
  </g>
  <ellipse cx="20" cy="24" rx="9" ry="5" fill="#3a4d46"/>
  <ellipse cx="20" cy="24" rx="9" ry="5" fill="none" stroke="#32423c" stroke-width="1"/>
  <ellipse cx="18" cy="23" rx="5" ry="2.4" fill="#44584f"/>
  <ellipse cx="42" cy="52" rx="10" ry="5.5" fill="#3a4d46"/>
  <ellipse cx="42" cy="52" rx="10" ry="5.5" fill="none" stroke="#32423c" stroke-width="1"/>
  <ellipse cx="39" cy="51" rx="6" ry="2.6" fill="#44584f"/>
  <ellipse cx="45" cy="53" rx="2.2" ry="1.3" fill="#5f7a3d"/>
  <path d="M45 53 L47.4 52.4" stroke="#4c6531" stroke-width="0.8"/>
  <!-- Standing elements, farthest first; a cut stump sits by the near pool. -->
  <use href="#rd" transform="translate(32 26)"/>
  <use href="#rd" transform="translate(12 44) scale(0.85)"/>
  <use href="#rd" transform="translate(52 44) scale(0.9)"/>
  <g transform="translate(28 48)">
    <ellipse cx="0" cy="1.6" rx="4.6" ry="2" fill="#42522f" opacity="0.7"/>
    <path d="M-3.6 0 L-3.6 -4 L3.6 -4 L3.6 0 Q0 2 -3.6 0 Z" fill="#5a4630"/>
    <ellipse cx="0" cy="-4" rx="3.6" ry="1.8" fill="#a88b5e"/>
    <ellipse cx="0" cy="-4" rx="2.2" ry="1" fill="none" stroke="#8a6f47" stroke-width="0.7"/>
    <circle cx="0" cy="-4" r="0.6" fill="#8a6f47"/>
  </g>
  <use href="#rd" transform="translate(24 58) scale(0.75)"/>
</svg>
