<svg xmlns="http://www.w3.org/2000/svg" viewBox="0 0 64 64">
  <defs><g id="rd" fill="none" stroke-linecap="round">
    <path d="M0 0 Q-2 -6 -4 -10" stroke="#6b7d3f" stroke-width="1.4"/>
    <path d="M0 0 Q-0.5 -7 -1 -12" stroke="#7a8c4a" stroke-width="1.4"/>
    <path d="M0 0 Q2 -6 3.5 -9" stroke="#6b7d3f" stroke-width="1.4"/>
    <path d="M-1 -12 L-1 -15.5" stroke="#7a8c4a" stroke-width="0.9"/>
    <ellipse cx="-1" cy="-12.5" rx="0.9" ry="2.6" fill="#5a4a30"/>
  </g></defs>
  <rect width="64" height="64" fill="#4f5f3c"/>
  <g fill="#475738">
    <ellipse cx="15" cy="14" rx="10" ry="6"/>
    <ellipse cx="48" cy="50" rx="11" ry="7"/>
  </g>
  <g fill="#576741">
    <ellipse cx="50" cy="12" rx="8" ry="5"/>
    <ellipse cx="13" cy="50" rx="8" ry="5"/>
  </g>
  <!-- Pool: mud bank behind the far rim, water, sheen, ripples, then pads. -->
  <path d="M14 34 Q20 26 30 27 Q38 28 40 33 Q30 30 20 33 Q15 34 14 34 Z" fill="#5b4f35"/>
  <ellipse cx="27" cy="36" rx="14" ry="8" fill="#3a4d46"/>
  <ellipse cx="27" cy="36" rx="14" ry="8" fill="none" stroke="#32423c" stroke-width="1"/>
  <ellipse cx="24" cy="34" rx="8" ry="4" fill="#44584f"/>
  <path d="M19 39 Q24 37.5 29 39 T38 38.5" stroke="#4a5c54" stroke-width="1" fill="none" opacity="0.8"/>
  <ellipse cx="22" cy="38" rx="2.6" ry="1.6" fill="#5f7a3d"/>
  <path d="M22 38 L25 37.2" stroke="#4c6531" stroke-width="0.8"/>
  <ellipse cx="32" cy="34" rx="2.2" ry="1.3" fill="#5f7a3d"/>
  <path d="M32 34 L34.4 33.4" stroke="#4c6531" stroke-width="0.8"/>
  <!-- Standing reeds, farthest (highest base) first. -->
  <use href="#rd" transform="translate(50 24) scale(0.85)"/>
  <use href="#rd" transform="translate(14 32)"/>
  <use href="#rd" transform="translate(40 40) scale(0.95)"/>
  <ellipse cx="46" cy="55" rx="5" ry="2.6" fill="#5c6d43"/>
  <ellipse cx="45" cy="54" rx="3" ry="1.4" fill="#6a7c4e"/>
  <use href="#rd" transform="translate(20 54) scale(0.8)"/>
</svg>
