<svg xmlns="http://www.w3.org/2000/svg" viewBox="0 0 64 64">
  <defs><g id="rd" fill="none" stroke-linecap="round">
    <path d="M0 0 Q-1.5 -5 -3 -9" stroke="#6b7d3f" stroke-width="1.4"/>
    <path d="M0 0 Q0 -6 0.5 -10.5" stroke="#7a8c4a" stroke-width="1.4"/>
    <path d="M0 0 Q2 -5 3.5 -8" stroke="#6b7d3f" stroke-width="1.4"/>
    <ellipse cx="0.5" cy="-10.5" rx="1" ry="2" fill="#5a4a30"/>
  </g></defs>
  <rect width="64" height="64" fill="#4f5f3c"/>
  <g fill="#475738">
    <ellipse cx="48" cy="16" rx="10" ry="6"/>
    <ellipse cx="14" cy="46" rx="9" ry="6"/>
  </g>
  <g fill="#576741">
    <ellipse cx="14" cy="14" rx="7" ry="5"/>
    <ellipse cx="50" cy="48" rx="8" ry="5"/>
  </g>
  <ellipse cx="40" cy="42" rx="12" ry="7" fill="#3d5049"/>
  <ellipse cx="40" cy="42" rx="12" ry="7" fill="none" stroke="#35463f" stroke-width="1"/>
  <ellipse cx="44" cy="43" rx="2.2" ry="1.3" fill="#5f7a3d"/>
  <path d="M25 16 L24 30 M25 20 L20 15 M25 22 L30 17 M25 25 L21 22" stroke="#4a3a26" stroke-width="1.8" stroke-linecap="round" fill="none"/>
  <ellipse cx="24.5" cy="31" rx="4" ry="1.4" fill="#42522f" opacity="0.7"/>
  <use href="#rd" transform="translate(30 44)"/>
  <use href="#rd" transform="translate(52 32) scale(0.85)"/>
  <use href="#rd" transform="translate(14 56) scale(0.9)"/>
  <use href="#rd" transform="translate(44 16) scale(0.75)"/>
</svg>
