<svg xmlns="http://www.w3.org/2000/svg" viewBox="0 0 64 64">
  <rect width="64" height="64" fill="#d9bd75"/>
  <g fill="none" stroke="#c7ab5f" stroke-width="1.5" stroke-linecap="round">
    <path d="M8 34 q4 -2 8 0"/>
    <path d="M14 38 q4 -2 8 0"/>
    <path d="M6 42 q4 -2 8 0"/>
    <path d="M40 10 q4 -2 8 0"/>
    <path d="M46 14 q4 -2 8 0"/>
  </g>
  <g>
    <ellipse cx="46" cy="34" rx="4" ry="2.8" fill="#b09a63"/>
    <path d="M43.5 32.8 a4 2.8 0 0 1 5 -0.8" fill="none" stroke="#cbb27a" stroke-width="1"/>
    <ellipse cx="53" cy="37" rx="2.4" ry="1.7" fill="#b09a63"/>
    <ellipse cx="18" cy="12" rx="2.6" ry="1.8" fill="#b09a63"/>
  </g>
  <g fill="none" stroke-linecap="round">
    <path d="M0 22 Q16 16 32 22 T64 22" stroke="#bda055" stroke-width="2.5" transform="translate(0 2.5)"/>
    <path d="M0 22 Q16 16 32 22 T64 22" stroke="#eedb9a" stroke-width="2"/>
    <path d="M0 46 Q16 52 32 46 T64 46" stroke="#bda055" stroke-width="2.5" transform="translate(0 2.5)"/>
    <path d="M0 46 Q16 52 32 46 T64 46" stroke="#eedb9a" stroke-width="2"/>
  </g>
</svg>
