<svg xmlns="http://www.w3.org/2000/svg" viewBox="0 0 64 64">
  <rect width="64" height="64" fill="#d9bd75"/>
  <g fill="none" stroke="#c7ab5f" stroke-width="1.5" stroke-linecap="round">
    <path d="M38 56 q4 -2 8 0"/>
    <path d="M44 59 q4 -2 8 0"/>
    <path d="M50 12 q4 -2 8 0"/>
  </g>
  <g>
    <ellipse cx="17" cy="13" rx="4.6" ry="3.8" fill="#e9e2cd"/>
    <path d="M14 15.5 L14 18.5 Q17 20.5 20 18.5 L20 15.5 Z" fill="#e9e2cd"/>
    <circle cx="15.3" cy="12.5" r="1.2" fill="#8a7a52"/>
    <circle cx="18.7" cy="12.5" r="1.2" fill="#8a7a52"/>
    <path d="M15 18 L15 19.5 M17 18.6 L17 20 M19 18 L19 19.5" stroke="#c7b795" stroke-width="0.8"/>
    <path d="M11.5 11 Q9 9 9.5 6.5 M22.5 11 Q25 9 24.5 6.5" stroke="#d5cbb0" stroke-width="1.4" fill="none" stroke-linecap="round"/>
    <path d="M25 16 q3 1.5 6 0.5 M25.5 18.5 q2.5 1.2 5 0.4" stroke="#e0d8c0" stroke-width="1.2" fill="none" stroke-linecap="round"/>
  </g>
  <g fill="none" stroke="#8a6f42" stroke-width="1.3" stroke-linecap="round">
    <path d="M46 32 L46 24 M46 27 L42.5 22.5 M46 27 L49.5 23 M42.5 22.5 L41 19.5 M49.5 23 L51.5 20"/>
  </g>
  <g fill="none" stroke-linecap="round">
    <path d="M0 22 Q16 16 32 22 T64 22" stroke="#bda055" stroke-width="2.5" transform="translate(0 2.5)"/>
    <path d="M0 22 Q16 16 32 22 T64 22" stroke="#eedb9a" stroke-width="2"/>
    <path d="M0 46 Q16 52 32 46 T64 46" stroke="#bda055" stroke-width="2.5" transform="translate(0 2.5)"/>
    <path d="M0 46 Q16 52 32 46 T64 46" stroke="#eedb9a" stroke-width="2"/>
  </g>
</svg>
