<svg xmlns="http://www.w3.org/2000/svg" viewBox="0 0 64 64">
  <path d="M32 0 C32 10 26 14 26 24 C26 34 38 30 38 40 C38 50 32 54 32 64" stroke="#6b5a3e" stroke-width="22" fill="none"/>
  <path d="M32 0 C32 10 26 14 26 24 C26 34 38 30 38 40 C38 50 32 54 32 64" stroke="#33719f" stroke-width="18" fill="none"/>
  <g stroke="#7fb2d9" stroke-width="1.4" fill="none" stroke-linecap="round">
    <path d="M28 12 C24 18 23 24 24.5 30"/>
    <path d="M40.5 36 C41 42 38.5 48 34.5 54"/>
  </g>
  <ellipse cx="28" cy="26" rx="2.2" ry="5" fill="#2d6591"/>
  <g fill="#8ac2e6"><circle cx="33" cy="14" r="0.9"/><circle cx="35" cy="42" r="1"/><circle cx="31" cy="55" r="0.8"/></g>
</svg>
