<svg xmlns="http://www.w3.org/2000/svg" viewBox="0 0 64 64">
  <g stroke="#6b5a3e" stroke-width="22" fill="none" stroke-linecap="round">
    <path d="M32 0 C32 8 29 14 30 20 C31 26 32 28 32 32"/>
    <path d="M32 64 C32 56 35 50 34 44 C33 38 32 36 32 32"/>
    <path d="M64 32 C56 32 50 29 44 30 C38 31 36 32 32 32"/>
  </g>
  <g stroke="#33719f" stroke-width="18" fill="none" stroke-linecap="round">
    <path d="M32 0 C32 8 29 14 30 20 C31 26 32 28 32 32"/>
    <path d="M32 64 C32 56 35 50 34 44 C33 38 32 36 32 32"/>
    <path d="M64 32 C56 32 50 29 44 30 C38 31 36 32 32 32"/>
  </g>
  <g stroke="#7fb2d9" stroke-width="1.4" fill="none" stroke-linecap="round">
    <path d="M27 8 C26.5 12 26 16 26.5 20"/>
    <path d="M38 44 C38.5 50 38 54 37.5 58"/>
    <path d="M46 26.5 C50 25.5 54 26 58 27"/>
  </g>
  <ellipse cx="33" cy="32" rx="3.4" ry="4.5" fill="#2d6591"/>
  <g fill="#8ac2e6"><circle cx="30.5" cy="14" r="0.9"/><circle cx="34" cy="50" r="0.9"/><circle cx="52" cy="33" r="0.8"/></g>
</svg>
