<svg xmlns="http://www.w3.org/2000/svg" viewBox="0 0 64 64">
  <g stroke="#6b5a3e" stroke-width="22" fill="none" stroke-linecap="round">
    <path d="M32 0 C32 8 30.5 12 30.5 18 C30.5 25 32 27 32 32"/>
    <path d="M32 64 C32 56 33.5 52 33.5 46 C33.5 39 32 37 32 32"/>
    <path d="M64 32 C56 32 52 30.5 46 30.5 C39 30.5 37 32 32 32"/>
  </g>
  <g stroke="#33719f" stroke-width="18" fill="none" stroke-linecap="round">
    <path d="M32 0 C32 8 30.5 12 30.5 18 C30.5 25 32 27 32 32"/>
    <path d="M32 64 C32 56 33.5 52 33.5 46 C33.5 39 32 37 32 32"/>
    <path d="M64 32 C56 32 52 30.5 46 30.5 C39 30.5 37 32 32 32"/>
  </g>
  <g stroke="#7fb2d9" stroke-width="1.4" fill="none" stroke-linecap="round">
    <path d="M27 8 C26.5 12 26.5 16 27 20"/>
    <path d="M38 44 C38.5 48 38.5 52 38 56"/>
    <path d="M46 27 C50 26.5 54 26.5 58 27"/>
  </g>
  <ellipse cx="33" cy="32" rx="3.4" ry="4.5" fill="#2d6591"/>
  <g fill="#8ac2e6"><circle cx="30.5" cy="14" r="0.9"/><circle cx="34" cy="50" r="0.9"/><circle cx="52" cy="33" r="0.8"/></g>
</svg>
