<svg xmlns="http://www.w3.org/2000/svg" viewBox="0 0 64 64">
  <!-- Four gently curving arms meeting in a confluence pool. Banks first, then
       water, so no bank line crosses the joined water surface. -->
  <g stroke="#6b5a3e" stroke-width="22" fill="none" stroke-linecap="round">
    <path d="M32 0 C32 8 29 14 30 20 C31 26 32 28 32 32"/>
    <path d="M32 64 C32 56 35 50 34 44 C33 38 32 36 32 32"/>
    <path d="M64 32 C56 32 50 29 44 30 C38 31 36 32 32 32"/>
    <path d="M0 32 C8 32 14 35 20 34 C26 33 28 32 32 32"/>
  </g>
  <g stroke="#33719f" stroke-width="18" fill="none" stroke-linecap="round">
    <path d="M32 0 C32 8 29 14 30 20 C31 26 32 28 32 32"/>
    <path d="M32 64 C32 56 35 50 34 44 C33 38 32 36 32 32"/>
    <path d="M64 32 C56 32 50 29 44 30 C38 31 36 32 32 32"/>
    <path d="M0 32 C8 32 14 35 20 34 C26 33 28 32 32 32"/>
  </g>
  <g stroke="#7fb2d9" stroke-width="1.4" fill="none" stroke-linecap="round">
    <path d="M27 8 C26.5 12 26 16 26.5 20"/>
    <path d="M38 44 C38.5 50 38 54 37.5 58"/>
    <path d="M46 26.5 C50 25.5 54 26 58 27"/>
    <path d="M8 37.5 C12 38.5 16 38 20 37.5"/>
  </g>
  <ellipse cx="32" cy="32" rx="4.5" ry="4" fill="#2d6591"/>
  <g fill="#8ac2e6"><circle cx="16" cy="30" r="0.9"/><circle cx="35" cy="52" r="0.9"/><circle cx="50" cy="34" r="0.8"/></g>
</svg>
