<svg xmlns="http://www.w3.org/2000/svg" viewBox="0 0 64 64">
  <!-- Meandering channel: crosses both edges at y=32 with a flat tangent so it
       joins any other piece, wandering between in an S. -->
  <path d="M0 32 C10 32 14 26 24 26 C34 26 30 38 40 38 C50 38 54 32 64 32" stroke="#6b5a3e" stroke-width="22" fill="none"/>
  <path d="M0 32 C10 32 14 26 24 26 C34 26 30 38 40 38 C50 38 54 32 64 32" stroke="#33719f" stroke-width="18" fill="none"/>
  <g stroke="#7fb2d9" stroke-width="1.4" fill="none" stroke-linecap="round">
    <path d="M12 28 C18 24 24 23 30 24.5"/>
    <path d="M36 40.5 C42 41 48 38.5 54 34.5"/>
  </g>
  <ellipse cx="26" cy="28" rx="5" ry="2.2" fill="#2d6591"/>
  <g fill="#8ac2e6"><circle cx="14" cy="33" r="0.9"/><circle cx="42" cy="35" r="1"/><circle cx="55" cy="31" r="0.8"/></g>
</svg>
