<svg xmlns="http://www.w3.org/2000/svg" viewBox="0 0 64 64">
  <path d="M32 0 C32 6 27.5 8 27.5 16 C27.5 28 36.5 36 36.5 48 C36.5 56 32 58 32 64" stroke="#6b5a3e" stroke-width="22" fill="none"/>
  <path d="M32 0 C32 6 27.5 8 27.5 16 C27.5 28 36.5 36 36.5 48 C36.5 56 32 58 32 64" stroke="#33719f" stroke-width="18" fill="none"/>
  <g stroke="#7fb2d9" stroke-width="1.4" fill="none" stroke-linecap="round">
    <path d="M29 10 C26 14 24.5 20 25.5 27"/>
    <path d="M39.5 37 C40 44 38 51 34.5 56"/>
  </g>
  <ellipse cx="32" cy="32" rx="2.4" ry="5" fill="#2d6591"/>
  <g fill="#8ac2e6"><circle cx="30" cy="14" r="0.9"/><circle cx="35" cy="42" r="1"/><circle cx="32" cy="55" r="0.8"/></g>
</svg>
