<svg xmlns="http://www.w3.org/2000/svg" viewBox="0 0 64 64">
  <!-- Outer coast corner (water south + east): coast-corner-nw mirrored across
       both axes. -->
  <g transform="translate(64 64) scale(-1 -1)">
    <path d="M0 0 H64 V36 Q56 38.5 48 36 C45.6 35.25 35.25 45.6 36 48 Q38.5 56 36 64 H0 Z" fill="#33719f"/>
    <ellipse cx="16" cy="14" rx="11" ry="6" fill="#2d6591"/>
    <ellipse cx="44" cy="10" rx="8" ry="4" fill="#2d6591"/>
    <ellipse cx="12" cy="44" rx="5" ry="9" fill="#2d6591"/>
    <g fill="#8ac2e6"><circle cx="34" cy="18" r="1"/><circle cx="10" cy="28" r="0.9"/><circle cx="52" cy="16" r="0.9"/><circle cx="18" cy="56" r="0.9"/></g>
    <path d="M8 20 L13 20 M40 21 L46 21 M18 40 L18 45" stroke="#8ac2e6" stroke-width="1.2" fill="none" stroke-linecap="round" opacity="0.7"/>
    <path d="M64 28 Q56 24.5 48 28 C38.4 32.2 32.2 38.4 28 48 Q24.5 56 28 64 L36 64 Q38.5 56 36 48 C35.25 45.6 45.6 35.25 48 36 Q56 38.5 64 36 Z" fill="#c2a36c"/>
    <path d="M64 28 Q56 24.5 48 28 C38.4 32.2 32.2 38.4 28 48 Q24.5 56 28 64" stroke="#8ac2e6" stroke-width="1.4" fill="none" opacity="0.9"/>
    <g fill="#b08f57"><circle cx="55" cy="32.5" r="0.7"/><circle cx="39" cy="39" r="0.6"/><circle cx="32" cy="55" r="0.7"/></g>
    <g fill="#cdb078"><circle cx="46" cy="33" r="0.6"/><circle cx="34" cy="47" r="0.6"/></g>
  </g>
</svg>
