<svg xmlns="http://www.w3.org/2000/svg" viewBox="0 0 64 64">
  <defs><g id="t" fill="none" stroke-linecap="round">
    <path d="M0 0 Q-2 -4 -4 -7" stroke="#3f7a34" stroke-width="1.6"/>
    <path d="M0 0 Q0 -5 -0.5 -9" stroke="#3f7a34" stroke-width="1.6"/>
    <path d="M0 0 Q2 -4 4 -7" stroke="#3f7a34" stroke-width="1.6"/>
    <path d="M0.5 0 Q1.5 -4 3 -6" stroke="#74b160" stroke-width="1.2"/>
  </g></defs>
  <rect width="64" height="64" fill="#5a9b4a"/>
  <g fill="#529044">
    <ellipse cx="44" cy="20" rx="12" ry="8"/>
    <ellipse cx="14" cy="50" rx="10" ry="6"/>
  </g>
  <g fill="#63a651">
    <ellipse cx="18" cy="14" rx="8" ry="5"/>
    <ellipse cx="46" cy="50" rx="9" ry="6"/>
  </g>
  <use href="#t" transform="translate(16 30)"/>
  <use href="#t" transform="translate(50 40)"/>
  <use href="#t" transform="translate(38 58)"/>
  <g stroke="#4a8339" stroke-width="1" fill="none" stroke-linecap="round">
    <path d="M30 44 L30 38 M44 16 L44 11 M14 22 L14 17"/>
  </g>
  <g>
    <g fill="#f3efe2"><circle cx="28" cy="37" r="1.4"/><circle cx="31.6" cy="36.2" r="1.4"/><circle cx="29.8" cy="34" r="1.4"/></g>
    <circle cx="30" cy="35.8" r="1.1" fill="#e8c93f"/>
    <g fill="#f3efe2"><circle cx="42.4" cy="10" r="1.2"/><circle cx="45.6" cy="10" r="1.2"/><circle cx="44" cy="8" r="1.2"/></g>
    <circle cx="44" cy="9.4" r="0.9" fill="#e8c93f"/>
    <g fill="#f3efe2"><circle cx="12.4" cy="16" r="1.2"/><circle cx="15.6" cy="16" r="1.2"/><circle cx="14" cy="14" r="1.2"/></g>
    <circle cx="14" cy="15.4" r="0.9" fill="#e8c93f"/>
  </g>
</svg>
