<svg xmlns="http://www.w3.org/2000/svg" viewBox="0 0 64 64">
  <defs><g id="t" fill="none" stroke-linecap="round">
    <path d="M0 0 Q-2 -4 -4 -7" stroke="#3f7a34" stroke-width="1.6"/>
    <path d="M0 0 Q0 -5 -0.5 -9" stroke="#3f7a34" stroke-width="1.6"/>
    <path d="M0 0 Q2 -4 4 -7" stroke="#3f7a34" stroke-width="1.6"/>
    <path d="M0.5 0 Q1.5 -4 3 -6" stroke="#74b160" stroke-width="1.2"/>
  </g></defs>
  <rect width="64" height="64" fill="#5a9b4a"/>
  <g fill="#529044">
    <ellipse cx="20" cy="44" rx="13" ry="8"/>
    <ellipse cx="50" cy="12" rx="9" ry="6"/>
  </g>
  <ellipse cx="12" cy="14" rx="8" ry="5" fill="#63a651"/>
  <use href="#t" transform="translate(12 56)"/>
  <use href="#t" transform="translate(26 36)"/>
  <use href="#t" transform="translate(52 46)"/>
  <use href="#t" transform="translate(16 20) scale(0.85)"/>
  <use href="#t" transform="translate(36 14) scale(0.85)"/>
  <g>
    <ellipse cx="46" cy="28" rx="9" ry="6" fill="#8a8f94"/>
    <path d="M38.5 25.5 Q42 21.5 47 22.2 Q52 22.8 54.5 26" fill="none" stroke="#a8adb2" stroke-width="1.6" stroke-linecap="round"/>
    <path d="M39 31 Q44 34.5 51 33" fill="none" stroke="#6e747a" stroke-width="1.4" stroke-linecap="round"/>
    <circle cx="43" cy="27" r="1.3" fill="#7a9a58"/>
    <circle cx="49.5" cy="29.5" r="1" fill="#7a9a58"/>
  </g>
</svg>
